<svg width="18" height="19" viewBox="0 0 18 19" fill="none" xmlns="http://www.w3.org/2000/svg">
<path d="M12.2595 8.65785C13.7361 8.65785 14.9329 7.46104 14.9329 5.9845C14.9329 4.50877 13.7361 3.31116 12.2595 3.31116" stroke="white" stroke-width="1.5" stroke-linecap="round" stroke-linejoin="round"/>
<path d="M13.489 11.5631C13.9301 11.5931 14.368 11.6564 14.8001 11.752C15.3994 11.8712 16.121 12.1169 16.3772 12.6545C16.541 12.9991 16.541 13.4005 16.3772 13.7451C16.1218 14.2827 15.3994 14.5284 14.8001 14.6516" stroke="white" stroke-width="1.5" stroke-linecap="round" stroke-linejoin="round"/>
<path fill-rule="evenodd" clip-rule="evenodd" d="M7.04697 12.1387C10.039 12.1387 12.5947 12.5919 12.5947 14.4025C12.5947 16.214 10.0552 16.6826 7.04697 16.6826C4.05496 16.6826 1.5 16.2302 1.5 14.4188C1.5 12.6073 4.03874 12.1387 7.04697 12.1387Z" stroke="white" stroke-width="1.5" stroke-linecap="round" stroke-linejoin="round"/>
<path fill-rule="evenodd" clip-rule="evenodd" d="M7.04692 9.55412C5.07333 9.55412 3.49219 7.97217 3.49219 5.99858C3.49219 4.0258 5.07333 2.44385 7.04692 2.44385C9.02051 2.44385 10.6025 4.0258 10.6025 5.99858C10.6025 7.97217 9.02051 9.55412 7.04692 9.55412Z" stroke="white" stroke-width="1.5" stroke-linecap="round" stroke-linejoin="round"/>
</svg>
