<svg width="40" height="40" viewBox="0 0 40 40" fill="none" xmlns="http://www.w3.org/2000/svg">
<rect opacity="0.1" width="40" height="40" rx="14.2857" fill="#FF7C81"/>
<path fill-rule="evenodd" clip-rule="evenodd" d="M12.2857 8H27.7143C30.0812 8 32 9.91878 32 12.2857V16.6914L8 13.0057V12.2857C8 9.91878 9.91878 8 12.2857 8ZM14.6429 32L18.1314 16.2886L8 14.7286V27.7143C8 30.0813 9.91878 32 12.2857 32H14.6429ZM25.5971 27.6029L27.3114 25.3743C27.9279 24.6698 28.1267 23.6922 27.8343 22.8029C27.5361 21.9779 26.8015 21.3889 25.9314 21.2772H25.6228H25.3143C24.4441 21.3889 23.7096 21.9779 23.4114 22.8029C23.1051 23.6833 23.2841 24.6599 23.8828 25.3743L25.5971 27.6029ZM26.4543 23.8571C26.4519 23.4483 26.1612 23.0981 25.7599 23.0205C25.3585 22.9429 24.9582 23.1595 24.8037 23.538C24.6491 23.9164 24.7833 24.3513 25.1242 24.5769C25.4651 24.8025 25.9178 24.7559 26.2057 24.4657C26.353 24.2975 26.4324 24.0806 26.4286 23.8571H26.4543ZM32 27.7142V18.4314L19.8286 16.5714L16.4 32H27.7143C30.0812 32 32 30.0812 32 27.7142ZM29.3771 22.2029C28.8352 20.8066 27.5717 19.8195 26.0857 19.6315C25.7466 19.5972 25.4048 19.5972 25.0657 19.6315C23.5765 19.8165 22.3091 20.8041 21.7657 22.2029C21.2471 23.639 21.5169 25.2416 22.4771 26.4286L25.5714 30.3972L28.6657 26.4286C29.6259 25.2416 29.8957 23.639 29.3771 22.2029Z" fill="#FF7C81"/>
</svg>