<svg width="16" height="16" viewBox="0 0 16 16" fill="none" xmlns="http://www.w3.org/2000/svg">
<path d="M0.71247 4.76453C0.724894 4.97775 0.814732 5.18071 0.967377 5.3401L7.03614 11.9362C7.13111 12.0398 7.24909 12.123 7.38193 12.18C7.51477 12.2371 7.65924 12.2666 7.80553 12.2666C7.95182 12.2666 8.09641 12.2371 8.22925 12.18C8.36209 12.123 8.48007 12.0398 8.57503 11.9362L14.6377 5.3401C14.7361 5.24836 14.8131 5.1387 14.8638 5.01798C14.9146 4.89727 14.938 4.7681 14.9327 4.63857C14.9273 4.50904 14.8933 4.38194 14.8327 4.26522C14.7721 4.14851 14.6862 4.04469 14.5806 3.96028C14.4749 3.87587 14.3516 3.81268 14.2184 3.77466C14.0853 3.73665 13.9452 3.72464 13.8069 3.73937C13.6685 3.7541 13.5349 3.79527 13.4144 3.86029C13.2939 3.92531 13.1892 4.01279 13.1068 4.11724L7.80658 9.8785L2.5044 4.11724C2.36917 3.964 2.18538 3.85441 1.9793 3.80411C1.77323 3.75381 1.5554 3.76536 1.3568 3.8371C1.15819 3.90885 0.988902 4.03714 0.873231 4.20368C0.757559 4.37021 0.701365 4.56649 0.712587 4.76453L0.71247 4.76453Z" fill="#1D3557"/>
</svg>
