<svg width="40" height="40" viewBox="0 0 40 40" fill="none" xmlns="http://www.w3.org/2000/svg">
<circle cx="20" cy="20" r="20" fill="white"/>
<path d="M23.4398 12.0015C23.2 12.0154 22.9716 12.1165 22.7923 12.2882L15.3717 19.1156C15.2551 19.2224 15.1616 19.3551 15.0974 19.5046C15.0332 19.654 15 19.8166 15 19.9811C15 20.1457 15.0332 20.3084 15.0974 20.4578C15.1616 20.6073 15.2551 20.74 15.3717 20.8468L22.7923 27.6674C22.8955 27.778 23.0189 27.8646 23.1547 27.9217C23.2905 27.9788 23.4358 28.0052 23.5815 27.9992C23.7273 27.9931 23.8702 27.9548 24.0015 27.8867C24.1329 27.8185 24.2496 27.7219 24.3446 27.6031C24.4396 27.4842 24.5107 27.3454 24.5534 27.1957C24.5962 27.0459 24.6097 26.8883 24.5931 26.7326C24.5766 26.577 24.5302 26.4267 24.4571 26.2911C24.384 26.1556 24.2855 26.0378 24.168 25.945L17.6866 19.9823L24.168 14.0174C24.3404 13.8652 24.4637 13.6585 24.5203 13.4266C24.5769 13.1948 24.5639 12.9498 24.4832 12.7263C24.4025 12.5029 24.2581 12.3124 24.0708 12.1823C23.8834 12.0522 23.6626 11.989 23.4398 12.0016V12.0015Z" fill="#1D3557"/>
</svg>
