<svg width="40" height="40" viewBox="0 0 40 40" fill="none" xmlns="http://www.w3.org/2000/svg">
<rect opacity="0.1" width="40" height="40" rx="14.2857" fill="#27AE62"/>
<path fill-rule="evenodd" clip-rule="evenodd" d="M27.5625 10.7188H26.4453V9.85938C26.4453 9.38474 26.0606 9 25.5859 9C25.1113 9 24.7266 9.38474 24.7266 9.85938V10.7188H20.8164V9.85938C20.8164 9.38474 20.4317 9 19.957 9C19.4824 9 19.0977 9.38474 19.0977 9.85938V10.7188H15.2305V9.85938C15.2305 9.38474 14.8457 9 14.3711 9C13.8965 9 13.5117 9.38474 13.5117 9.85938V10.7188H12.4375C10.5421 10.7188 9 12.2608 9 14.1562V27.5625C9 29.4579 10.5421 31 12.4375 31H19.0117C19.4864 31 19.8711 30.6153 19.8711 30.1406C19.8711 29.666 19.4864 29.2812 19.0117 29.2812H12.4375C11.4898 29.2812 10.7188 28.5102 10.7188 27.5625V14.1562C10.7188 13.2085 11.4898 12.4375 12.4375 12.4375H13.5117V13.2969C13.5117 13.7715 13.8965 14.1562 14.3711 14.1562C14.8457 14.1562 15.2305 13.7715 15.2305 13.2969V12.4375H19.0977V13.2969C19.0977 13.7715 19.4824 14.1562 19.957 14.1562C20.4317 14.1562 20.8164 13.7715 20.8164 13.2969V12.4375H24.7266V13.2969C24.7266 13.7715 25.1113 14.1562 25.5859 14.1562C26.0606 14.1562 26.4453 13.7715 26.4453 13.2969V12.4375H27.5625C28.5102 12.4375 29.2812 13.2085 29.2812 14.1562V19.0547C29.2812 19.5293 29.666 19.9141 30.1406 19.9141C30.6153 19.9141 31 19.5293 31 19.0547V14.1562C31 12.2608 29.4579 10.7188 27.5625 10.7188ZM25.5859 18.8828C26.0606 18.8828 26.4453 18.4981 26.4453 18.0234C26.4453 17.5488 26.0606 17.1641 25.5859 17.1641C25.1113 17.1641 24.7266 17.5488 24.7266 18.0234C24.7266 18.4981 25.1113 18.8828 25.5859 18.8828ZM20.6016 25.8008C20.6016 22.9339 22.9339 20.6016 25.8008 20.6016C28.6677 20.6016 31 22.9339 31 25.8008C31 28.6677 28.6677 31 25.8008 31C22.9339 31 20.6016 28.6677 20.6016 25.8008ZM22.3203 25.8008C22.3203 27.7199 23.8817 29.2812 25.8008 29.2812C27.7199 29.2812 29.2812 27.7199 29.2812 25.8008C29.2812 23.8816 27.7199 22.3203 25.8008 22.3203C23.8817 22.3203 22.3203 23.8816 22.3203 25.8008ZM27.0469 24.9414H26.6602V24.0391C26.6602 23.5644 26.2754 23.1797 25.8008 23.1797C25.3261 23.1797 24.9414 23.5644 24.9414 24.0391V25.8008C24.9414 26.2754 25.3261 26.6602 25.8008 26.6602H27.0469C27.5215 26.6602 27.9062 26.2754 27.9062 25.8008C27.9062 25.3261 27.5215 24.9414 27.0469 24.9414ZM22.707 18.0234C22.707 18.4981 22.3223 18.8828 21.8477 18.8828C21.373 18.8828 20.9883 18.4981 20.9883 18.0234C20.9883 17.5488 21.373 17.1641 21.8477 17.1641C22.3223 17.1641 22.707 17.5488 22.707 18.0234ZM18.1094 22.6211C18.584 22.6211 18.9688 22.2363 18.9688 21.7617C18.9688 21.2871 18.584 20.9023 18.1094 20.9023C17.6348 20.9023 17.25 21.2871 17.25 21.7617C17.25 22.2363 17.6348 22.6211 18.1094 22.6211ZM15.2305 18.0234C15.2305 18.4981 14.8457 18.8828 14.3711 18.8828C13.8965 18.8828 13.5117 18.4981 13.5117 18.0234C13.5117 17.5488 13.8965 17.1641 14.3711 17.1641C14.8457 17.1641 15.2305 17.5488 15.2305 18.0234ZM14.3711 22.6211C14.8457 22.6211 15.2305 22.2363 15.2305 21.7617C15.2305 21.2871 14.8457 20.9023 14.3711 20.9023C13.8965 20.9023 13.5117 21.2871 13.5117 21.7617C13.5117 22.2363 13.8965 22.6211 14.3711 22.6211ZM15.2305 25.5C15.2305 25.9746 14.8457 26.3594 14.3711 26.3594C13.8965 26.3594 13.5117 25.9746 13.5117 25.5C13.5117 25.0254 13.8965 24.6406 14.3711 24.6406C14.8457 24.6406 15.2305 25.0254 15.2305 25.5ZM18.1094 26.3594C18.584 26.3594 18.9688 25.9746 18.9688 25.5C18.9688 25.0254 18.584 24.6406 18.1094 24.6406C17.6348 24.6406 17.25 25.0254 17.25 25.5C17.25 25.9746 17.6348 26.3594 18.1094 26.3594ZM18.9688 18.0234C18.9688 18.4981 18.584 18.8828 18.1094 18.8828C17.6348 18.8828 17.25 18.4981 17.25 18.0234C17.25 17.5488 17.6348 17.1641 18.1094 17.1641C18.584 17.1641 18.9688 17.5488 18.9688 18.0234Z" fill="#27AE62"/>
</svg>
