<svg width="18" height="18" viewBox="0 0 18 18" fill="none" xmlns="http://www.w3.org/2000/svg">
<rect width="18" height="18" rx="2" fill="#3C88FF"/>
<path fill-rule="evenodd" clip-rule="evenodd" d="M7.2658 12.1864C7.27714 12.1871 7.2885 12.1875 7.29986 12.1875C7.43129 12.1875 7.56273 12.1372 7.66284 12.0371L13.8237 5.87631C14.0241 5.67582 14.0241 5.35084 13.8237 5.15036C13.6234 4.94988 13.2979 4.94988 13.0977 5.15036L7.26908 10.9789L4.87349 8.51584C4.67391 8.31601 4.34946 8.31601 4.14988 8.51584C3.95004 8.71567 3.95004 9.0396 4.14988 9.23944L6.87124 12.0375C6.97103 12.1375 7.10204 12.1874 7.23305 12.1874C7.24397 12.1874 7.2549 12.1871 7.2658 12.1864Z" fill="white"/>
<path d="M7.2658 12.1864L7.28226 11.9369L7.26606 11.9359L7.24985 11.9369L7.2658 12.1864ZM7.66284 12.0371L7.83962 12.2139L7.83962 12.2139L7.66284 12.0371ZM13.8237 5.87631L14.0004 6.05308L14.0004 6.05308L13.8237 5.87631ZM13.8237 5.15036L13.6468 5.32703L13.6469 5.32714L13.8237 5.15036ZM13.0977 5.15036L13.2745 5.32714L13.2746 5.32703L13.0977 5.15036ZM7.26908 10.9789L7.08986 11.1532L7.26661 11.335L7.44586 11.1557L7.26908 10.9789ZM4.87349 8.51584L5.05272 8.34152L5.05037 8.33918L4.87349 8.51584ZM4.14988 8.51584L4.32665 8.69262L4.32677 8.69251L4.14988 8.51584ZM4.14988 9.23944L4.32911 9.06511L4.32665 9.06266L4.14988 9.23944ZM6.87124 12.0375L6.69201 12.2118L6.69424 12.214L6.87124 12.0375ZM7.29986 11.9375C7.29399 11.9375 7.28811 11.9373 7.28226 11.9369L7.24934 12.4358C7.26617 12.4369 7.28302 12.4375 7.29986 12.4375V11.9375ZM7.48606 11.8603C7.43461 11.9118 7.36754 11.9375 7.29986 11.9375V12.4375C7.49505 12.4375 7.69084 12.3626 7.83962 12.2139L7.48606 11.8603ZM13.6469 5.69953L7.48606 11.8603L7.83962 12.2139L14.0004 6.05308L13.6469 5.69953ZM13.6469 5.32714C13.7497 5.42999 13.7497 5.59668 13.6469 5.69953L14.0004 6.05308C14.2986 5.75497 14.2986 5.2717 14.0004 4.97358L13.6469 5.32714ZM13.2746 5.32703C13.3772 5.22432 13.5442 5.22432 13.6468 5.32703L14.0006 4.9737C13.7027 4.67543 13.2187 4.67543 12.9208 4.9737L13.2746 5.32703ZM7.44586 11.1557L13.2745 5.32714L12.9209 4.97358L7.0923 10.8022L7.44586 11.1557ZM4.69427 8.69014L7.08986 11.1532L7.4483 10.8046L5.0527 8.34154L4.69427 8.69014ZM4.32677 8.69251C4.42869 8.59045 4.59467 8.59045 4.6966 8.69251L5.05037 8.33918C4.75314 8.04156 4.27023 8.04156 3.97299 8.33918L4.32677 8.69251ZM4.32665 9.06266C4.22445 8.96046 4.22445 8.79482 4.32665 8.69262L3.9731 8.33906C3.67563 8.63653 3.67563 9.11875 3.9731 9.41621L4.32665 9.06266ZM7.05046 11.8632L4.32909 9.06513L3.97066 9.41374L6.69203 12.2118L7.05046 11.8632ZM7.23305 11.9374C7.1655 11.9374 7.09909 11.9119 7.04824 11.8609L6.69424 12.214C6.84298 12.3632 7.03858 12.4374 7.23305 12.4374V11.9374ZM7.24985 11.9369C7.24426 11.9372 7.23865 11.9374 7.23305 11.9374V12.4374C7.24929 12.4374 7.26553 12.4369 7.28175 12.4359L7.24985 11.9369Z" fill="white"/>
</svg>
