<svg width="36" height="36" viewBox="0 0 36 36" fill="none" xmlns="http://www.w3.org/2000/svg">
<circle cx="18" cy="18" r="18" fill="white"/>
<path fill-rule="evenodd" clip-rule="evenodd" d="M12.6571 12.6566C12.2666 13.0471 12.2666 13.6803 12.6571 14.0708L16.9001 18.3137L12.6571 22.5566C12.2666 22.9472 12.2666 23.5803 12.6571 23.9709C13.0477 24.3614 13.6808 24.3614 14.0714 23.9709L18.3143 19.7279L22.5566 23.9703C22.9472 24.3608 23.5803 24.3608 23.9708 23.9703C24.3614 23.5798 24.3614 22.9466 23.9708 22.5561L19.7285 18.3137L23.9708 14.0714C24.3614 13.6808 24.3614 13.0477 23.9708 12.6572C23.5803 12.2666 22.9472 12.2666 22.5566 12.6572L18.3143 16.8995L14.0714 12.6566C13.6808 12.2661 13.0477 12.2661 12.6571 12.6566Z" fill="#FF1F1F"/>
</svg>