<svg width="36" height="36" viewBox="0 0 36 36" fill="none" xmlns="http://www.w3.org/2000/svg">
<mask id="path-1-outside-1_49_506" maskUnits="userSpaceOnUse" x="5" y="6" width="25" height="24" fill="black">
<rect fill="white" x="5" y="6" width="25" height="24"/>
<path d="M17.5856 8C23.4223 8 28.1711 11.9823 28.1711 16.8772C28.1711 19.5318 26.7921 22.0016 24.3771 23.6916C24.1481 25.0751 24.9419 26.5234 24.9503 26.5386C25.1316 26.8585 25.1184 27.2504 24.9148 27.5592C24.7327 27.8353 24.4269 28 24.0965 28C24.0612 28 24.0252 27.998 23.9894 27.9941C22.9608 27.8798 21.3012 27.0981 19.053 25.6699C18.5688 25.726 18.0764 25.7544 17.5856 25.7544C11.7487 25.7544 7 21.7721 7 16.8772C7 11.9823 11.7487 8 17.5856 8Z"/>
</mask>
<path d="M19.053 25.6699L19.8573 24.4038L19.4085 24.1187L18.8804 24.1799L19.053 25.6699ZM23.9894 27.9941L23.8238 29.4849L23.8276 29.4854L23.9894 27.9941ZM24.9148 27.5592L26.167 28.3851L26.1673 28.3847L24.9148 27.5592ZM24.9503 26.5386L23.638 27.2651L23.6416 27.2716L23.6453 27.2782L24.9503 26.5386ZM24.3771 23.6916L23.5171 22.4627L23.0003 22.8243L22.8972 23.4467L24.3771 23.6916ZM29.6711 16.8772C29.6711 10.9174 23.9926 6.5 17.5856 6.5V9.5C22.8521 9.5 26.6711 13.0472 26.6711 16.8772H29.6711ZM17.5856 6.5C11.1784 6.5 5.5 10.9174 5.5 16.8772H8.5C8.5 13.0472 12.319 9.5 17.5856 9.5V6.5ZM5.5 16.8772C5.5 22.8371 11.1784 27.2544 17.5856 27.2544V24.2544C12.319 24.2544 8.5 20.7072 8.5 16.8772H5.5ZM17.5856 27.2544C18.1338 27.2544 18.6839 27.2227 19.2256 27.16L18.8804 24.1799C18.4537 24.2293 18.0189 24.2544 17.5856 24.2544V27.2544ZM18.2487 26.9361C19.4042 27.6701 20.4388 28.2577 21.3395 28.6818C22.2172 29.0951 23.0655 29.4007 23.8238 29.4849L24.1551 26.5033C23.8848 26.4733 23.3889 26.3309 22.6175 25.9677C21.8693 25.6153 20.95 25.0979 19.8573 24.4038L18.2487 26.9361ZM23.8276 29.4854C23.9151 29.4949 24.0051 29.5 24.0965 29.5V26.5C24.1173 26.5 24.1353 26.5011 24.1512 26.5029L23.8276 29.4854ZM24.0965 29.5C24.9314 29.5 25.7075 29.0818 26.167 28.3851L23.6626 26.7334C23.7579 26.5889 23.9224 26.5 24.0965 26.5V29.5ZM26.1673 28.3847C26.6796 27.6073 26.7155 26.6111 26.2553 25.799L23.6453 27.2782C23.5477 27.106 23.5571 26.8935 23.6623 26.7338L26.1673 28.3847ZM26.2627 25.8122C26.2881 25.8581 26.1353 25.5859 26.004 25.1733C25.8666 24.7414 25.7976 24.2949 25.857 23.9366L22.8972 23.4467C22.7275 24.4718 22.941 25.4412 23.1453 26.0831C23.3557 26.7443 23.6041 27.204 23.638 27.2651L26.2627 25.8122ZM25.2371 24.9206C27.9997 22.9873 29.6711 20.0832 29.6711 16.8772H26.6711C26.6711 18.9803 25.5846 21.0158 23.5171 22.4627L25.2371 24.9206Z" fill="white" mask="url(#path-1-outside-1_49_506)"/>
<circle cx="13" cy="16.9319" r="1.25" stroke="white"/>
<circle cx="17.5" cy="16.9319" r="1.25" stroke="white"/>
<circle cx="22" cy="16.9319" r="1.25" stroke="white"/>
</svg>
