<svg width="40" height="40" viewBox="0 0 40 40" fill="none" xmlns="http://www.w3.org/2000/svg">
<rect opacity="0.1" width="40" height="40" rx="14.2857" fill="#EF5645"/>
<path d="M23.5111 21.4327L25.8104 19.1927C25.9649 19.0442 26.0206 18.8203 25.9536 18.6168C25.8866 18.4133 25.7088 18.2663 25.4963 18.2386L22.3259 17.7764L20.9037 14.8964C20.7957 14.722 20.6051 14.616 20.4 14.616C20.1949 14.616 20.0043 14.722 19.8963 14.8964L18.4741 17.7764L15.3037 18.2386C15.0912 18.2663 14.9134 18.4133 14.8464 18.6168C14.7794 18.8203 14.8351 19.0442 14.9896 19.1927L17.2889 21.4327L16.7437 24.5971C16.7143 24.8079 16.8003 25.0183 16.9689 25.1482C17.1447 25.2672 17.3708 25.2831 17.5615 25.1897L20.4 23.6964L23.2385 25.1897C23.3193 25.2311 23.4085 25.2534 23.4993 25.2549C23.6181 25.2534 23.7337 25.2163 23.8311 25.1482C23.9997 25.0183 24.0857 24.8079 24.0563 24.5971L23.5111 21.4327Z" fill="#EF5645"/>
<path d="M20.4 12.8994C20.7139 12.9 20.9738 12.6557 20.9926 12.3424V10.1261C20.9127 9.88288 20.6856 9.71851 20.4296 9.71851C20.1736 9.71851 19.9466 9.88288 19.8667 10.1261V12.3424C19.8828 12.6341 20.1092 12.8706 20.4 12.8994Z" fill="#EF5645"/>
<path d="M14.4741 15.0386C14.5789 15.1448 14.7219 15.2046 14.8711 15.2045C15.0206 15.206 15.1642 15.146 15.2682 15.0386C15.4461 14.8106 15.4336 14.4876 15.2385 14.2741L13.6504 12.6563C13.5124 12.4969 13.297 12.4279 13.092 12.4775C12.8871 12.5272 12.7271 12.6872 12.6775 12.8921C12.6278 13.097 12.6968 13.3125 12.8563 13.4504L14.4741 15.0386Z" fill="#EF5645"/>
<path d="M13.0993 20.1999C13.0847 19.8975 12.8445 19.6548 12.5422 19.637H10.3259C10.0068 19.637 9.74815 19.8956 9.74815 20.2147C9.74815 20.5338 10.0068 20.7925 10.3259 20.7925H12.5422C12.8555 20.7737 13.0998 20.5138 13.0993 20.1999Z" fill="#EF5645"/>
<path d="M14.4741 25.3614L12.8563 26.9496C12.6527 27.1751 12.6527 27.5181 12.8563 27.7436C12.9632 27.8467 13.1049 27.906 13.2533 27.9096C13.4018 27.906 13.5435 27.8467 13.6504 27.7436L15.2385 26.1555C15.3888 25.9353 15.364 25.6398 15.1791 25.4477C14.9942 25.2556 14.6999 25.2196 14.4741 25.3614V25.3614Z" fill="#EF5645"/>
<path d="M20.4 27.5007C20.0976 27.5153 19.8548 27.7555 19.837 28.0578V30.3037C19.7567 30.5481 19.8432 30.8163 20.0511 30.9678C20.2591 31.1192 20.5409 31.1192 20.7489 30.9678C20.9568 30.8163 21.0433 30.5481 20.963 30.3037V28.0578C20.9451 27.7555 20.7024 27.5153 20.4 27.5007V27.5007Z" fill="#EF5645"/>
<path d="M26.3555 25.3616C26.1323 25.1685 25.7979 25.1806 25.5892 25.3893C25.3805 25.598 25.3684 25.9324 25.5615 26.1556L27.1496 27.7438C27.2565 27.8469 27.3982 27.9061 27.5467 27.9097C27.6951 27.9061 27.8368 27.8469 27.9437 27.7438C28.1473 27.5182 28.1473 27.1753 27.9437 26.9497L26.3555 25.3616Z" fill="#EF5645"/>
<path d="M30.5037 19.637H28.2578C28.0146 19.7169 27.8502 19.9439 27.8502 20.1999C27.8502 20.4559 28.0146 20.683 28.2578 20.7629H30.5037C30.7469 20.683 30.9113 20.4559 30.9113 20.1999C30.9113 19.9439 30.7469 19.7169 30.5037 19.637V19.637Z" fill="#EF5645"/>
<path d="M25.9585 15.2045C26.1077 15.2046 26.2508 15.1448 26.3555 15.0386L27.9437 13.4504C28.1032 13.3125 28.1722 13.097 28.1225 12.8921C28.0729 12.6872 27.9129 12.5272 27.708 12.4775C27.503 12.4279 27.2876 12.4969 27.1496 12.6563L25.5615 14.2741C25.3579 14.4997 25.3579 14.8426 25.5615 15.0682C25.6703 15.1648 25.8133 15.2139 25.9585 15.2045V15.2045Z" fill="#EF5645"/>
</svg>
