<svg width="36" height="36" viewBox="0 0 36 36" fill="none" xmlns="http://www.w3.org/2000/svg">
<path d="M21.7505 19.2569L24.5488 16.5306C24.7369 16.35 24.8046 16.0775 24.7231 15.8298C24.6415 15.5821 24.4252 15.4031 24.1666 15.3695L20.308 14.8069L18.5771 11.3017C18.4456 11.0895 18.2137 10.9604 17.964 10.9604C17.7144 10.9604 17.4825 11.0895 17.351 11.3017L15.62 14.8069L11.7615 15.3695C11.5029 15.4031 11.2865 15.5821 11.205 15.8298C11.1234 16.0775 11.1912 16.35 11.3792 16.5306L14.1776 19.2569L13.5141 23.1082C13.4783 23.3648 13.5829 23.6208 13.7881 23.7789C14.0021 23.9238 14.2773 23.943 14.5094 23.8294L17.964 22.0119L21.4187 23.8294C21.517 23.8798 21.6256 23.907 21.736 23.9088C21.8806 23.907 22.0214 23.8617 22.1399 23.7789C22.3451 23.6208 22.4497 23.3648 22.414 23.1082L21.7505 19.2569Z" fill="white"/>
<path d="M17.964 8.87136C18.346 8.87205 18.6623 8.57474 18.6852 8.19341V5.49602C18.588 5.20005 18.3116 5 18.0001 5C17.6885 5 17.4122 5.20005 17.3149 5.49602V8.19341C17.3345 8.54852 17.6101 8.83633 17.964 8.87136Z" fill="white"/>
<path d="M10.7518 11.4749C10.8793 11.6042 11.0534 11.6769 11.235 11.6768C11.4169 11.6786 11.5916 11.6056 11.7182 11.4749C11.9348 11.1975 11.9196 10.8043 11.6822 10.5445L9.74927 8.57555C9.58139 8.38148 9.31913 8.29748 9.06974 8.35791C8.82034 8.41834 8.62562 8.61306 8.56519 8.86246C8.50476 9.11185 8.58875 9.37411 8.78283 9.54199L10.7518 11.4749Z" fill="white"/>
<path d="M9.07852 17.7567C9.06074 17.3887 8.7684 17.0932 8.40057 17.0715H5.70319C5.31482 17.0715 4.99999 17.3864 4.99999 17.7747C4.99999 18.1631 5.31482 18.4779 5.70319 18.4779H8.40057C8.7819 18.455 9.07921 18.1387 9.07852 17.7567Z" fill="white"/>
<path d="M10.7518 24.0386L8.78282 25.9715C8.53507 26.246 8.53507 26.6634 8.78282 26.9379C8.9129 27.0634 9.08536 27.1355 9.26604 27.1399C9.44673 27.1355 9.61919 27.0634 9.74926 26.9379L11.6821 25.005C11.8651 24.737 11.8349 24.3774 11.6098 24.1436C11.3848 23.9098 11.0266 23.866 10.7518 24.0386Z" fill="white"/>
<path d="M17.964 26.6423C17.596 26.6601 17.3005 26.9525 17.2789 27.3203V30.0537C17.1811 30.3511 17.2864 30.6776 17.5394 30.8619C17.7925 31.0462 18.1355 31.0462 18.3886 30.8619C18.6417 30.6776 18.7469 30.3511 18.6492 30.0537V27.3203C18.6275 26.9525 18.3321 26.6601 17.964 26.6423V26.6423Z" fill="white"/>
<path d="M25.2123 24.0388C24.9407 23.8038 24.5336 23.8185 24.2796 24.0725C24.0256 24.3265 24.0109 24.7336 24.2459 25.0053L26.1788 26.9381C26.3089 27.0636 26.4813 27.1357 26.662 27.1401C26.8427 27.1357 27.0151 27.0636 27.1452 26.9381C27.393 26.6636 27.393 26.2462 27.1452 25.9717L25.2123 24.0388Z" fill="white"/>
<path d="M30.2609 17.0715H27.5275C27.2315 17.1688 27.0314 17.4451 27.0314 17.7567C27.0314 18.0682 27.2315 18.3446 27.5275 18.4419H30.2609C30.5569 18.3446 30.7569 18.0682 30.7569 17.7567C30.7569 17.4451 30.5569 17.1688 30.2609 17.0715Z" fill="white"/>
<path d="M24.7291 11.6768C24.9107 11.6769 25.0848 11.6042 25.2123 11.4749L27.1452 9.54199C27.3393 9.37411 27.4233 9.11185 27.3629 8.86246C27.3024 8.61306 27.1077 8.41834 26.8583 8.35791C26.6089 8.29748 26.3467 8.38148 26.1788 8.57555L24.2459 10.5445C23.9981 10.819 23.9981 11.2364 24.2459 11.5109C24.3784 11.6285 24.5524 11.6882 24.7291 11.6768Z" fill="white"/>
</svg>
