<svg width="20" height="21" viewBox="0 0 20 21" fill="none" xmlns="http://www.w3.org/2000/svg">
<path d="M9.1665 2.16669H7.49984C3.33317 2.16669 1.6665 3.83335 1.6665 8.00002V13C1.6665 17.1667 3.33317 18.8334 7.49984 18.8334H12.4998C16.6665 18.8334 18.3332 17.1667 18.3332 13V11.3334" stroke="#536D91" stroke-width="1.25" stroke-linecap="round" stroke-linejoin="round"/>
<path d="M13.3666 3.01669L6.7999 9.58336C6.5499 9.83336 6.2999 10.325 6.2499 10.6834L5.89157 13.1917C5.75823 14.1 6.3999 14.7334 7.30823 14.6084L9.81657 14.25C10.1666 14.2 10.6582 13.95 10.9166 13.7L17.4832 7.13336C18.6166 6.00003 19.1499 4.68336 17.4832 3.01669C15.8166 1.35003 14.4999 1.88336 13.3666 3.01669Z" stroke="#536D91" stroke-width="1.25" stroke-miterlimit="10" stroke-linecap="round" stroke-linejoin="round"/>
<path d="M12.4248 3.95831C12.9831 5.94998 14.5415 7.50831 16.5415 8.07498" stroke="#536D91" stroke-width="1.25" stroke-miterlimit="10" stroke-linecap="round" stroke-linejoin="round"/>
</svg>
