<?xml version="1.0" encoding="utf-8"?>
<!-- Generator: Adobe Illustrator 23.0.1, SVG Export Plug-In . SVG Version: 6.00 Build 0)  -->
<svg version="1.1" id="Layer_2" xmlns="http://www.w3.org/2000/svg" xmlns:xlink="http://www.w3.org/1999/xlink" x="0px" y="0px"
	 viewBox="0 0 1500 500" style="enable-background:new 0 0 1500 500;" xml:space="preserve">
<style type="text/css">
	.st0{fill:#893393;}
	.st1{fill:#4D3535;}
</style>
<g>
	<path class="st0" d="M266.06,130.61L157.6,193.45v175.93l9.39,0c13.72,0.02,42.28,0.05,71.28-12.95
		c12.03-5.39,20.53-11.48,27.52-17.55l0.27,0.27l0.27-0.27c6.99,6.07,15.49,12.16,27.52,17.55l0,0
		c27.96,12.53,55.49,12.95,69.73,12.95c0.53,0,1.05,0,1.55,0l9.39,0V193.45L266.06,130.61z M271.41,311
		c-1.82,1.8-3.59,3.54-5.34,5.28c-1.39-1.39-2.8-2.8-4.24-4.23c-6.51-6.49-13.89-13.85-24.46-24.64c-0.64-0.66-2.44-2.9-3.5-4.32
		c-5.2-6.98-7.95-15.29-7.95-24.02c0-22.2,18.06-40.25,40.25-40.25c22.2,0,40.25,18.06,40.25,40.25c0,8.73-2.75,17.04-7.95,24.02
		c-1.08,1.45-2.85,3.66-3.5,4.33C284.96,297.62,277.76,304.73,271.41,311z M358.38,353.21c-13.93-0.22-36.06-1.7-57.93-11.5
		c-9.48-4.25-16.37-8.91-22.69-14.29c1.64-1.62,3.29-3.26,4.99-4.94c6.4-6.32,13.64-13.47,23.75-23.78c1.9-1.94,4.89-5.94,4.92-5.98
		c7.29-9.79,11.15-21.43,11.15-33.66c0-31.09-25.3-56.39-56.39-56.39c-31.09,0-56.39,25.3-56.39,56.39
		c0,12.23,3.85,23.87,11.15,33.66c0.03,0.04,3.01,4.04,4.92,5.98c10.64,10.85,18.05,18.24,24.59,24.76
		c1.34,1.34,2.65,2.64,3.94,3.94c-6.32,5.38-13.22,10.05-22.71,14.3c-21.87,9.8-44,11.29-57.93,11.5V202.75l92.32-53.49l92.32,53.49
		V353.21z"/>
	<g>
		<path class="st1" d="M537.01,270.6c0,2.93-0.21,5.87-0.58,8.8h-83.99c2.61,15.15,12.56,23.49,27.12,23.49
			c10.43,0,18.98-4.93,23.54-12.87h31.53c-8.07,24.19-29.31,39.61-55.07,39.61c-32.77,0-57.56-25.37-57.56-58.62
			c0-33.42,24.62-58.63,57.56-58.63C513.64,212.36,537.01,238.63,537.01,270.6L537.01,270.6z M453.23,258.9h53.78
			c-4.24-13.57-13.98-20.92-27.45-20.92C466.2,237.98,456.72,245.77,453.23,258.9z"/>
		<path class="st1" d="M661,215.5l-44.09,110.97h-27.69L544.07,215.5h32l27.16,74.35l26.68-74.35H661z"/>
		<path class="st1" d="M783.4,270.6c0,2.93-0.21,5.87-0.58,8.8h-83.99c2.61,15.15,12.56,23.49,27.12,23.49
			c10.43,0,18.98-4.93,23.54-12.87h31.54c-8.07,24.19-29.31,39.61-55.07,39.61c-32.77,0-57.56-25.37-57.56-58.62
			c0-33.42,24.62-58.63,57.56-58.63C760.03,212.36,783.4,238.63,783.4,270.6L783.4,270.6z M699.63,258.9h53.78
			c-4.24-13.57-13.98-20.92-27.45-20.92C712.6,237.98,703.11,245.77,699.63,258.9z"/>
		<path class="st1" d="M874.03,214.89v28.3h-13.02c-16.91,0-23.6,7.49-23.6,25.63v57.65h-30V215.5h19.24l5.33,13.6
			c7.9-9.81,17.93-14.21,32.18-14.21H874.03z"/>
		<path class="st1" d="M957.26,212.87c25.13,0,40.73,17.92,40.73,46.18v67.42h-30v-62.4c0-16.61-5.87-24.87-19.35-24.87
			c-14.96,0-24.9,10.91-24.9,28.94v58.33h-30V175.51h30v50.29C932.15,217.78,944,212.87,957.26,212.87L957.26,212.87z"/>
		<path class="st1" d="M1020.83,270.99c0-33.67,25.61-58.63,59.99-58.63c34.21,0,59.99,25,59.99,58.63
			c0,33.46-25.78,58.62-59.99,58.62C1046.44,329.61,1020.83,304.45,1020.83,270.99z M1110.39,270.99
			c0-17.97-12.27-30.42-29.57-30.42c-17.3,0-29.57,12.44-29.57,30.42c0,17.97,12.28,30.42,29.57,30.42
			C1098.11,301.41,1110.39,288.96,1110.39,270.99z"/>
		<path class="st1" d="M1204.4,329.61c-27.85,0-46.46-15.9-46.61-39.68h29.26c0.15,9.88,7.72,14.81,18.48,14.81
			c8.33,0,15.78-3.77,15.78-11.19c0-7.58-9.62-9.88-21.35-11.84c-17.73-2.95-40.28-7.7-40.28-33.85c0-21,17.86-35.5,44.65-35.5
			c26.79,0,44.37,14.91,44.48,37.08h-28.47c-0.11-8.82-6.3-13.17-16.76-13.17c-9.34,0-14.85,4.28-14.85,10.63
			c0,7.4,9.47,9.12,21,11.21c18.1,3.25,41.21,7.08,41.21,34.12C1250.93,314.87,1232.42,329.61,1204.4,329.61L1204.4,329.61z"/>
		<path class="st1" d="M1342.4,299.76v26.72h-21.32c-24.42,0-39.42-15-39.42-39.63v-47.23h-20.07v-6.48l43.83-46.59h5.74v28.96
			h30.62v24.12h-30.11v43.25c0,10.72,6.17,16.89,17.09,16.89H1342.4z"/>
	</g>
</g>
</svg>
