<svg width="16" height="16" viewBox="0 0 16 16" fill="none" xmlns="http://www.w3.org/2000/svg">
<path d="M15.3332 5.68004V2.65337C15.3332 1.71337 14.9065 1.33337 13.8465 1.33337H11.1532C10.0932 1.33337 9.6665 1.71337 9.6665 2.65337V5.67337C9.6665 6.62004 10.0932 6.99337 11.1532 6.99337H13.8465C14.9065 7.00004 15.3332 6.62004 15.3332 5.68004Z" stroke="#893393" stroke-width="1.25" stroke-linecap="round" stroke-linejoin="round"/>
<path d="M15.3332 13.8467V11.1534C15.3332 10.0934 14.9065 9.66675 13.8465 9.66675H11.1532C10.0932 9.66675 9.6665 10.0934 9.6665 11.1534V13.8467C9.6665 14.9067 10.0932 15.3334 11.1532 15.3334H13.8465C14.9065 15.3334 15.3332 14.9067 15.3332 13.8467Z" stroke="#893393" stroke-width="1.25" stroke-linecap="round" stroke-linejoin="round"/>
<path d="M6.99992 5.68004V2.65337C6.99992 1.71337 6.57325 1.33337 5.51325 1.33337H2.81992C1.75992 1.33337 1.33325 1.71337 1.33325 2.65337V5.67337C1.33325 6.62004 1.75992 6.99337 2.81992 6.99337H5.51325C6.57325 7.00004 6.99992 6.62004 6.99992 5.68004Z" stroke="#893393" stroke-width="1.25" stroke-linecap="round" stroke-linejoin="round"/>
<path d="M6.99992 13.8467V11.1534C6.99992 10.0934 6.57325 9.66675 5.51325 9.66675H2.81992C1.75992 9.66675 1.33325 10.0934 1.33325 11.1534V13.8467C1.33325 14.9067 1.75992 15.3334 2.81992 15.3334H5.51325C6.57325 15.3334 6.99992 14.9067 6.99992 13.8467Z" stroke="#893393" stroke-width="1.25" stroke-linecap="round" stroke-linejoin="round"/>
</svg>
