<svg width="50" height="50" viewBox="0 0 50 50" fill="none" xmlns="http://www.w3.org/2000/svg">
<path d="M40.6185 20.4445C40.6228 20.3129 40.625 20.1807 40.625 20.0481C40.625 13.576 35.4483 8.32935 29.0625 8.32935C23.9969 8.32935 19.692 11.631 18.1287 16.2268C17.0059 15.633 15.7291 15.2972 14.375 15.2972C9.88769 15.2972 6.25 18.9841 6.25 23.532C6.25 28.08 9.88769 31.7668 14.375 31.7668L29.0625 31.7668C29.0677 31.7668 29.0729 31.7668 29.0781 31.7668H37.8125C41.0917 31.7668 43.75 29.0726 43.75 25.7491C43.75 23.4543 42.4826 21.4595 40.6185 20.4445Z" fill="white"/>
<path fill-rule="evenodd" clip-rule="evenodd" d="M20.1463 34.0625C19.5992 33.8847 19.0115 34.1841 18.8338 34.7313L15.2845 45.6549C15.1067 46.202 15.4061 46.7897 15.9533 46.9675C16.5004 47.1452 17.0881 46.8458 17.2658 46.2987L20.8151 35.3751C20.9929 34.8279 20.6935 34.2403 20.1463 34.0625ZM32.6838 34.0625C32.1366 33.8847 31.549 34.1842 31.3712 34.7313L27.8219 45.6549C27.6441 46.202 27.9436 46.7897 28.4907 46.9675C29.0378 47.1452 29.6255 46.8458 29.8033 46.2987L33.3526 35.3751C33.5303 34.8279 33.2309 34.2403 32.6838 34.0625ZM23.028 34.7313C23.2058 34.1842 23.7934 33.8847 24.3406 34.0625C24.8877 34.2403 25.1871 34.8279 25.0094 35.3751L22.3177 43.659C22.14 44.2062 21.5523 44.5056 21.0052 44.3278C20.458 44.15 20.1586 43.5624 20.3364 43.0152L23.028 34.7313ZM36.8261 34.0625C36.279 33.8847 35.6913 34.1842 35.5136 34.7313L32.8219 43.0152C32.6442 43.5624 32.9436 44.15 33.4907 44.3278C34.0379 44.5056 34.6255 44.2062 34.8033 43.659L37.4949 35.3751C37.6727 34.8279 37.3733 34.2403 36.8261 34.0625ZM14.6396 34.7313C14.8174 34.1842 15.405 33.8847 15.9522 34.0625C16.4993 34.2403 16.7987 34.8279 16.621 35.3751L14.787 41.0194C14.6092 41.5665 14.0216 41.8659 13.4744 41.6882C12.9273 41.5104 12.6279 40.9227 12.8056 40.3756L14.6396 34.7313ZM28.5345 34.0625C27.9874 33.8847 27.3997 34.1842 27.222 34.7313L25.388 40.3756C25.2102 40.9227 25.5097 41.5104 26.0568 41.6882C26.6039 41.8659 27.1916 41.5665 27.3694 41.0194L29.2033 35.3751C29.3811 34.8279 29.0817 34.2403 28.5345 34.0625Z" fill="#B4F5F2"/>
</svg>
