<svg width="50" height="50" viewBox="0 0 50 50" fill="none" xmlns="http://www.w3.org/2000/svg">
<path fill-rule="evenodd" clip-rule="evenodd" d="M24.0123 19.5901L20.3884 16.0999C19.9624 15.6896 19.9584 15.0282 20.3861 14.6163C20.8109 14.2072 21.5002 14.2078 21.9266 14.6184L24.0123 16.6272V10.3951C24.0123 9.81472 24.4951 9.34424 25.1 9.34424C25.7007 9.34424 26.1877 9.8084 26.1877 10.3951V16.6607L28.3082 14.6184C28.7342 14.2081 29.4209 14.2043 29.8486 14.6163C30.2734 15.0253 30.2728 15.6892 29.8464 16.0999L26.1877 19.6236V35.5247L29.8583 39.0599C30.2847 39.4706 30.2853 40.1345 29.8606 40.5435C29.4328 40.9555 28.7461 40.9517 28.3201 40.5414L26.1877 38.4876V44.7826C26.1877 45.3629 25.7049 45.8334 25.1 45.8334C24.4993 45.8334 24.0123 45.3692 24.0123 44.7826V38.4918L21.8841 40.5414C21.4578 40.952 20.7685 40.9526 20.3437 40.5435C19.916 40.1316 19.9199 39.4702 20.3459 39.0599L24.0123 35.5289V19.5901Z" fill="white"/>
<path fill-rule="evenodd" clip-rule="evenodd" d="M32.4249 30.5774L37.236 29.1813C37.8016 29.0172 38.3734 29.3444 38.5153 29.9212C38.6563 30.4939 38.3126 31.0911 37.7466 31.2553L34.9775 32.0588L39.8863 35.2047C40.3863 35.4949 40.5513 36.1486 40.2502 36.6729C39.9511 37.1936 39.3088 37.3836 38.8033 37.0903L33.8657 33.9276L34.5695 36.7868C34.7109 37.3612 34.3723 37.9583 33.8044 38.1231C33.2405 38.2868 32.6689 37.9543 32.5274 37.3794L31.313 32.4462L17.6134 24.4956L12.7402 25.9097C12.1742 26.0739 11.6019 25.7426 11.4609 25.1698C11.319 24.5931 11.6641 23.9998 12.2297 23.8357L15.0608 23.0142L10.0979 19.8369C9.59785 19.5467 9.43287 18.893 9.73401 18.3687C10.0331 17.848 10.6754 17.658 11.1809 17.9513L16.1402 21.1265L15.4339 18.2571C15.2923 17.6821 15.635 17.0844 16.1989 16.9207C16.7668 16.7559 17.3346 17.0901 17.476 17.6645L18.6929 22.608L32.4249 30.5774Z" fill="white"/>
<path fill-rule="evenodd" clip-rule="evenodd" d="M18.643 32.4791L17.4402 37.3653C17.2988 37.9397 16.731 38.2739 16.1632 38.1091C15.5992 37.9455 15.2566 37.3477 15.3981 36.7728L16.0904 33.9605L11.1816 37.1064C10.6816 37.3966 10.0359 37.2133 9.73474 36.689C9.43568 36.1683 9.59314 35.5142 10.0986 35.2208L15.0362 32.0582L12.221 31.2413C11.6555 31.0772 11.3103 30.4838 11.4522 29.9071C11.5932 29.3344 12.1655 29.003 12.7316 29.1673L17.5889 30.5767L31.2885 22.6262L32.5068 17.6769C32.6483 17.102 33.2199 16.7695 33.7838 16.9331C34.3517 17.0979 34.6903 17.6951 34.5489 18.2695L33.8411 21.1447L38.804 17.9674C39.3041 17.6772 39.9497 17.8605 40.2509 18.3848C40.55 18.9055 40.3925 19.5597 39.887 19.853L34.9277 23.0282L37.753 23.8481C38.3191 24.0123 38.6628 24.6095 38.5218 25.1822C38.3799 25.7589 37.8081 26.0862 37.2425 25.9221L32.375 24.5097L18.643 32.4791Z" fill="white"/>
<path d="M22.688 19.6993L19.6793 16.8179C18.8275 16.0022 18.8236 14.6647 19.677 13.8474C20.5033 13.0561 21.8253 13.0577 22.6521 13.8496L23.0237 14.1619V10.3479C23.0237 9.18879 23.9803 8.26734 25.148 8.26734C26.3137 8.26734 27.2723 9.18441 27.2723 10.3479V14.1619L27.679 13.8496C28.5061 13.0574 29.8255 13.0539 30.6541 13.8474C31.5051 14.6624 31.5033 16.0025 30.6518 16.8179L27.643 19.6993H31.0685L31.6339 17.4154C31.9164 16.2741 33.0745 15.6038 34.2039 15.9297C35.3068 16.2479 35.9631 17.3912 35.6878 18.503L35.5363 19.1002L37.2728 17.897C37.6924 17.2693 37.9364 16.5182 37.9364 15.7112C37.9364 14.1904 37.0698 12.8684 35.7952 12.1957C35.7982 12.1085 35.7997 12.0209 35.7997 11.933C35.7997 7.64383 32.26 4.16675 27.8937 4.16675C24.43 4.16675 21.4865 6.3548 20.4175 9.40058C19.6498 9.00703 18.7768 8.78453 17.8509 8.78453C14.7827 8.78453 12.2954 11.2279 12.2954 14.2419C12.2954 15.9726 13.1155 17.5151 14.3947 18.5149L14.3887 18.4906C14.1136 17.3792 14.7728 16.2346 15.8726 15.9172C17.0052 15.5904 18.16 16.2613 18.4427 17.403L19.0111 19.6993H22.688Z" fill="white"/>
</svg>
