<svg width="36" height="36" viewBox="0 0 36 36" fill="none" xmlns="http://www.w3.org/2000/svg">
<path d="M28.409 16.5689C28.4085 16.5684 28.408 16.5679 28.4075 16.5674L19.4324 7.59351C19.0498 7.21082 18.5412 7 18.0001 7C17.4591 7 16.9505 7.21065 16.5678 7.59334L7.59728 16.5627C7.59426 16.5658 7.59124 16.5689 7.58822 16.572C6.80261 17.362 6.80396 18.6439 7.59208 19.4319C7.95215 19.7921 8.4277 20.0007 8.93616 20.0226C8.95681 20.0246 8.97763 20.0256 8.99861 20.0256H9.35633V26.6298C9.35633 27.9367 10.4197 29 11.7271 29H15.2384C15.5943 29 15.883 28.7115 15.883 28.3555V23.1777C15.883 22.5814 16.3682 22.0963 16.9646 22.0963H19.0357C19.6321 22.0963 20.1172 22.5814 20.1172 23.1777V28.3555C20.1172 28.7115 20.4058 29 20.7618 29H24.2732C25.5805 29 26.6439 27.9367 26.6439 26.6298V20.0256H26.9756C27.5165 20.0256 28.0251 19.8149 28.408 19.4322C29.197 18.6429 29.1973 17.3588 28.409 16.5689V16.5689Z" stroke="white" stroke-width="1.5"/>
</svg>
