<svg width="18" height="19" viewBox="0 0 18 19" fill="none" xmlns="http://www.w3.org/2000/svg">
<g opacity="0.8">
<path d="M7.22608 15.7739V13.4806C7.22608 12.8951 7.70413 12.4206 8.29383 12.4206H10.4495C10.7326 12.4206 11.0042 12.5323 11.2045 12.731C11.4047 12.9298 11.5172 13.1994 11.5172 13.4806V15.7739C11.5154 16.0172 11.6115 16.2513 11.7843 16.424C11.957 16.5967 12.192 16.6938 12.4372 16.6938H13.9079C14.5947 16.6956 15.2541 16.426 15.7404 15.9445C16.2267 15.4629 16.5 14.8091 16.5 14.1272V7.59399C16.5 7.04319 16.2541 6.52073 15.8285 6.16735L10.8255 2.20075C9.95525 1.50527 8.70833 1.52772 7.86404 2.25408L2.97526 6.16735C2.52956 6.51031 2.26316 7.03432 2.25 7.59399V14.1205C2.25 15.5417 3.41054 16.6938 4.84213 16.6938H6.27922C6.78842 16.6939 7.20225 16.286 7.20594 15.7805L7.22608 15.7739Z" stroke="#1D3557" stroke-width="1.5"/>
</g>
</svg>
