<svg width="16" height="16" viewBox="0 0 16 16" fill="none" xmlns="http://www.w3.org/2000/svg">
<path d="M13.2666 10H2.73325C1.73325 10 1.33325 10.4016 1.33325 11.3992V13.9341C1.33325 14.9318 1.73325 15.3333 2.73325 15.3333H13.2666C14.2666 15.3333 14.6666 14.9318 14.6666 13.9341V11.3992C14.6666 10.4016 14.2666 10 13.2666 10Z" stroke="#1D3557" stroke-width="1.255" stroke-linecap="round" stroke-linejoin="round"/>
<path d="M13.2666 0.666626H2.73325C1.73325 0.666626 1.33325 1.06819 1.33325 2.06584V4.60074C1.33325 5.59839 1.73325 5.99996 2.73325 5.99996H13.2666C14.2666 5.99996 14.6666 5.59839 14.6666 4.60074V2.06584C14.6666 1.06819 14.2666 0.666626 13.2666 0.666626Z" stroke="#1D3557" stroke-width="1.255" stroke-linecap="round" stroke-linejoin="round"/>
</svg>
