<svg width="20" height="20" viewBox="0 0 20 20" fill="none" xmlns="http://www.w3.org/2000/svg">
<path d="M18.3334 6.66663V10.8333C18.3334 14.1666 16.6667 15.8333 13.3334 15.8333H12.9167C12.6584 15.8333 12.4084 15.9583 12.2501 16.1666L11.0001 17.8333C10.4501 18.5666 9.55008 18.5666 9.00008 17.8333L7.75008 16.1666C7.61675 15.9833 7.30841 15.8333 7.08341 15.8333H6.66675C3.33341 15.8333 1.66675 15 1.66675 10.8333V6.66663C1.66675 3.33329 3.33341 1.66663 6.66675 1.66663H10.0001" stroke="#1D3557" stroke-width="1.4" stroke-miterlimit="10" stroke-linecap="round" stroke-linejoin="round"/>
<path d="M12.6666 3.85003C12.3916 3.02503 12.7166 2.00836 13.6166 1.72503C14.0833 1.58336 14.6666 1.70003 14.9999 2.14169C15.3166 1.68336 15.9166 1.58336 16.3833 1.72503C17.2833 2.00003 17.6083 3.02503 17.3333 3.85003C16.9083 5.15836 15.4166 5.83336 14.9999 5.83336C14.5833 5.83336 13.1083 5.16669 12.6666 3.85003Z" stroke="#1D3557" stroke-linecap="round" stroke-linejoin="round"/>
<path d="M13.3303 9.16667H13.3378" stroke="#1D3557" stroke-width="2" stroke-linecap="round" stroke-linejoin="round"/>
<path d="M9.99632 9.16667H10.0038" stroke="#1D3557" stroke-width="2" stroke-linecap="round" stroke-linejoin="round"/>
<path d="M6.66209 9.16667H6.66957" stroke="#1D3557" stroke-width="2" stroke-linecap="round" stroke-linejoin="round"/>
</svg>
