<svg width="40" height="40" viewBox="0 0 40 40" fill="none" xmlns="http://www.w3.org/2000/svg">
<rect opacity="0.1" width="40" height="40" rx="14.2857" fill="#6E38DD"/>
<path d="M28.4132 27.9117V26.0946C28.4132 25.4133 28.0852 24.7571 27.53 24.3533C25.6372 22.9905 23.4164 22.2334 21.1199 22.082V19.0536C21.1199 18.6499 20.7918 18.3218 20.388 18.3218C19.9842 18.3218 19.6562 18.6499 19.6562 19.0536V22.1073C17.3344 22.2334 15.1388 23.0158 13.2461 24.3786C12.6909 24.7823 12.3628 25.4133 12.3628 26.1199V27.9369C11.5552 28.2398 11 28.9969 11 29.9054C11 31.0663 11.9338 32 13.0946 32C14.2555 32 15.1893 31.0663 15.1893 29.9054C15.1893 28.9969 14.6088 28.2398 13.8265 27.9369V26.1199C13.8265 25.8928 13.9274 25.6909 14.1041 25.5647C15.7445 24.3786 17.6625 23.6972 19.6814 23.571V27.9369C18.8738 28.2398 18.3186 28.9969 18.3186 29.9054C18.3186 31.0663 19.2524 32 20.4132 32C21.5741 32 22.5079 31.0663 22.5079 29.9054C22.5079 28.9969 21.9274 28.2398 21.1451 27.9369V23.571C23.164 23.6972 25.0568 24.3786 26.7224 25.5647C26.8991 25.6909 27 25.8928 27 26.1199V27.9369C26.1924 28.2398 25.6372 28.9969 25.6372 29.9054C25.6372 31.0663 26.571 32 27.7319 32C28.8927 32 29.8265 31.0663 29.8265 29.9054C29.776 28.9716 29.2208 28.2145 28.4132 27.9117Z" fill="#6E38DD"/>
<path d="M17.1577 14.1577C17.3596 14.3344 17.4606 14.6372 17.4101 14.8896L16.8549 17.2114C16.7035 17.8675 17.4101 18.3722 17.9653 18.0189L19.9842 16.7823C20.2114 16.6309 20.5142 16.6309 20.7666 16.7823L22.7855 18.0189C23.3407 18.3722 24.0473 17.8423 23.8959 17.2114L23.3407 14.8896C23.265 14.612 23.3659 14.3344 23.5931 14.1577L25.3849 12.6183C25.8896 12.1893 25.612 11.3565 24.9558 11.306L22.5836 11.1041C22.306 11.0789 22.0536 10.9022 21.9527 10.6498L21.0442 8.45426C20.7918 7.84858 19.9085 7.84858 19.6562 8.45426L18.7729 10.6498C18.6719 10.9022 18.4196 11.0789 18.142 11.1041L15.7697 11.306C15.1136 11.3565 14.836 12.1893 15.3407 12.6183L17.1577 14.1577Z" fill="#6E38DD"/>
</svg>
