<svg width="50" height="50" viewBox="0 0 50 50" fill="none" xmlns="http://www.w3.org/2000/svg">
<g clip-path="url(#clip0_51_1399)">
<path fill-rule="evenodd" clip-rule="evenodd" d="M25 43.125C35.0102 43.125 43.125 35.0102 43.125 25C43.125 14.9898 35.0102 6.875 25 6.875C14.9898 6.875 6.875 14.9898 6.875 25C6.875 35.0102 14.9898 43.125 25 43.125ZM43.75 25C43.75 35.3553 35.3553 43.75 25 43.75C14.6447 43.75 6.25 35.3553 6.25 25C6.25 14.6447 14.6447 6.25 25 6.25C35.3553 6.25 43.75 14.6447 43.75 25Z" fill="#FFF308" fill-opacity="0.2"/>
<path fill-rule="evenodd" clip-rule="evenodd" d="M24.8958 40.6249C33.5828 40.6249 40.625 33.5827 40.625 24.8958C40.625 16.2088 33.5828 9.16659 24.8958 9.16659C16.2089 9.16659 9.16666 16.2088 9.16666 24.8958C9.16666 33.5827 16.2089 40.6249 24.8958 40.6249ZM41.4583 24.8958C41.4583 34.043 34.043 41.4583 24.8958 41.4583C15.7486 41.4583 8.33333 34.043 8.33333 24.8958C8.33333 15.7485 15.7486 8.33325 24.8958 8.33325C34.043 8.33325 41.4583 15.7485 41.4583 24.8958Z" fill="#FFF308" fill-opacity="0.6"/>
<path fill-rule="evenodd" clip-rule="evenodd" d="M24.8958 38.9583C32.6623 38.9583 38.9583 32.6623 38.9583 24.8958C38.9583 17.1292 32.6623 10.8333 24.8958 10.8333C17.1293 10.8333 10.8333 17.1292 10.8333 24.8958C10.8333 32.6623 17.1293 38.9583 24.8958 38.9583Z" fill="#FFEC65"/>
</g>
<path d="M43.5717 19.0319C43.5748 18.9384 43.5764 18.8444 43.5764 18.7501C43.5764 14.1477 39.8377 10.4167 35.2257 10.4167C31.5672 10.4167 28.4581 12.7646 27.329 16.0327C26.5181 15.6104 25.596 15.3717 24.6181 15.3717C21.3772 15.3717 18.75 17.9935 18.75 21.2276C18.75 24.4617 21.3772 27.0834 24.6181 27.0834L35.2369 27.0834H41.5451C43.9134 27.0834 45.8333 25.1675 45.8333 22.8041C45.8333 21.1723 44.918 19.7537 43.5717 19.0319Z" fill="white"/>
<path d="M19.4416 33.875C19.4435 33.817 19.4445 33.7589 19.4445 33.7005C19.4445 30.8514 17.1437 28.5417 14.3056 28.5417C12.0542 28.5417 10.1409 29.9952 9.44608 32.0183C8.94707 31.7569 8.37962 31.6091 7.77778 31.6091C5.78342 31.6091 4.16667 33.2321 4.16667 35.2342C4.16667 37.2362 5.78342 38.8592 7.77778 38.8592L14.3125 38.8592H18.1944C19.6519 38.8592 20.8333 37.6732 20.8333 36.2101C20.8333 35.1999 20.2701 34.3218 19.4416 33.875Z" fill="white"/>
<defs>
<clipPath id="clip0_51_1399">
<rect width="37.5" height="37.5" fill="white" transform="translate(6.25 6.25)"/>
</clipPath>
</defs>
</svg>
