<svg width="18" height="19" viewBox="0 0 18 19" fill="none" xmlns="http://www.w3.org/2000/svg">
<g opacity="0.8">
<ellipse cx="9.00406" cy="5.42232" rx="3.78482" ry="3.72847" stroke="#1D3557" stroke-width="1.5" stroke-linecap="round" stroke-linejoin="round"/>
<path fill-rule="evenodd" clip-rule="evenodd" d="M3.00001 14.3364C2.999 14.0743 3.0585 13.8154 3.17403 13.5793C3.53656 12.865 4.55889 12.4865 5.40721 12.315C6.01902 12.1864 6.63928 12.1005 7.26337 12.0579C8.41883 11.9579 9.58096 11.9579 10.7364 12.0579C11.3604 12.101 11.9807 12.1869 12.5926 12.315C13.4409 12.4865 14.4632 12.8293 14.8258 13.5793C15.0581 14.0606 15.0581 14.6194 14.8258 15.1007C14.4632 15.8507 13.4409 16.1935 12.5926 16.3578C11.9815 16.4917 11.361 16.5801 10.7364 16.6221C9.79596 16.7006 8.85113 16.7149 7.90867 16.6649C7.69116 16.6649 7.48089 16.6649 7.26337 16.6221C6.64112 16.5806 6.02302 16.4922 5.41447 16.3578C4.55889 16.1935 3.54381 15.8507 3.17403 15.1007C3.05909 14.8618 2.99965 14.6007 3.00001 14.3364Z" stroke="#1D3557" stroke-width="1.5" stroke-linecap="round" stroke-linejoin="round"/>
</g>
</svg>
