<svg width="40" height="40" viewBox="0 0 40 40" fill="none" xmlns="http://www.w3.org/2000/svg">
<rect opacity="0.1" width="40" height="40" rx="14.2857" fill="#EBB000"/>
<path fill-rule="evenodd" clip-rule="evenodd" d="M20.0003 6C12.268 6 6 12.268 6 20C6 27.7317 12.268 34 20.0003 34C27.732 34 34 27.7317 34 20C34 12.268 27.732 6 20.0003 6ZM29.4426 20.5554C29.1948 20.838 28.8476 20.9828 28.4985 20.9828C28.2048 20.9828 27.9104 20.8804 27.6722 20.6716L26.7534 19.8661V27C26.7534 27.4356 26.4002 27.7891 25.9644 27.7891H14.0357C13.6001 27.7891 13.2469 27.4356 13.2469 27V19.8661L12.3278 20.6716C11.8073 21.1285 11.0146 21.0765 10.5577 20.5554C10.1009 20.0343 10.1529 19.2422 10.674 18.785L19.1731 11.3321C19.6465 10.9173 20.3538 10.9173 20.8272 11.3321L29.3263 18.7853C29.8469 19.2422 29.8991 20.0346 29.4426 20.5554ZM21.7589 17.6379C21.9863 17.429 22.1 17.1754 22.1 16.8781C22.1 16.5812 21.9863 16.3277 21.7589 16.1169C21.5315 15.9061 21.2584 15.8 20.9382 15.8C20.6192 15.8 20.3434 15.9061 20.1147 16.1169C19.8873 16.3277 19.7723 16.5812 19.7723 16.8781C19.7723 17.1754 19.8873 17.429 20.1147 17.6379C20.3434 17.8467 20.6192 17.9515 20.9382 17.9515C21.2584 17.9515 21.5315 17.8467 21.7589 17.6379ZM21.2348 24.6214C21.6452 24.4318 21.8622 24.0756 21.6491 23.9126C21.5717 23.8535 21.4793 23.8933 21.3921 23.9308C21.3408 23.9528 21.2914 23.974 21.2479 23.974C20.9957 23.974 20.8179 23.9333 20.716 23.8512C20.6127 23.7684 20.5631 23.6151 20.5631 23.3888C20.5631 23.2983 20.5774 23.1657 20.6088 22.9904C20.6402 22.8146 20.6768 22.6574 20.716 22.5203L21.2035 20.8157C21.2492 20.6592 21.2832 20.4871 21.3015 20.3002C21.3185 20.1114 21.3277 19.9807 21.3277 19.907C21.3277 19.5481 21.1996 19.2558 20.9447 19.0308C20.6911 18.8065 20.3278 18.6932 19.8573 18.6932C19.5959 18.6932 19.3175 18.7314 19.0261 18.8309C18.4549 19.0288 18.5817 19.5204 18.7085 19.5204C18.9659 19.5204 19.1385 19.5636 19.23 19.6497C19.3215 19.735 19.3685 19.887 19.3685 20.1062C19.3685 20.2265 19.3515 20.3617 19.3227 20.5078C19.2927 20.654 19.2574 20.8098 19.213 20.9734L18.7229 22.6845C18.6811 22.8643 18.6496 23.0253 18.6288 23.1682C18.6092 23.3111 18.6 23.4509 18.6 23.588C18.6 23.9392 18.7307 24.2288 18.9934 24.4577C19.2561 24.6873 19.66 24.9001 20.1331 24.9001C20.4402 24.9001 20.8793 24.787 21.2348 24.6214Z" fill="#EBB000"/>
</svg>
