<svg width="18" height="18" viewBox="0 0 18 18" fill="none" xmlns="http://www.w3.org/2000/svg">
<path d="M7.22608 15.58V13.2867C7.22608 12.7013 7.70413 12.2267 8.29383 12.2267H10.4495C10.7326 12.2267 11.0042 12.3384 11.2045 12.5372C11.4047 12.736 11.5172 13.0056 11.5172 13.2867V15.58C11.5154 15.8234 11.6115 16.0574 11.7843 16.2301C11.957 16.4029 12.192 16.5 12.4372 16.5H13.9079C14.5947 16.5018 15.2541 16.2321 15.7404 15.7506C16.2267 15.2691 16.5 14.6152 16.5 13.9334V7.40014C16.5 6.84935 16.2541 6.32688 15.8285 5.9735L10.8255 2.0069C9.95525 1.31142 8.70833 1.33388 7.86404 2.06023L2.97526 5.9735C2.52956 6.31646 2.26316 6.84048 2.25 7.40014V13.9267C2.25 15.3479 3.41054 16.5 4.84213 16.5H6.27922C6.78842 16.5 7.20225 16.0922 7.20594 15.5867L7.22608 15.58Z" fill="#893393"/>
</svg>
