<svg width="18" height="18" viewBox="0 0 18 18" fill="none" xmlns="http://www.w3.org/2000/svg">
<path d="M5.16017 1.00145C5.40005 1.01543 5.62838 1.11649 5.8077 1.28822L13.2283 8.11558C13.3449 8.22241 13.4384 8.35515 13.5026 8.50459C13.5668 8.65404 13.6 8.81657 13.6 8.98114C13.6 9.14572 13.5668 9.30838 13.5026 9.45782C13.4384 9.60727 13.3449 9.74 13.2283 9.84683L5.8077 16.6674C5.70449 16.778 5.58112 16.8646 5.44531 16.9217C5.30951 16.9788 5.1642 17.0052 5.01848 16.9992C4.87276 16.9931 4.72976 16.9548 4.59846 16.8867C4.46715 16.8185 4.35036 16.7219 4.25539 16.6031C4.16043 16.4842 4.08934 16.3454 4.04658 16.1957C4.00381 16.0459 3.9903 15.8883 4.00687 15.7326C4.02345 15.577 4.06976 15.4267 4.14291 15.2911C4.21605 15.1556 4.31446 15.0378 4.43197 14.945L10.9134 8.98232L4.43197 3.01737C4.25958 2.86524 4.1363 2.65847 4.07971 2.42664C4.02312 2.19481 4.03611 1.94975 4.11682 1.72632C4.19754 1.50288 4.34186 1.31244 4.52922 1.18231C4.71657 1.05218 4.93738 0.988956 5.16017 1.00158V1.00145Z" fill="#1D3557"/>
</svg>
