<svg width="40" height="40" viewBox="0 0 40 40" fill="none" xmlns="http://www.w3.org/2000/svg">
<circle cx="20" cy="20" r="20" fill="white"/>
<path fill-rule="evenodd" clip-rule="evenodd" d="M19.2728 14.4828L16.1506 17.605C16.0134 17.7375 15.8297 17.8108 15.639 17.8091C15.4483 17.8075 15.2659 17.731 15.1311 17.5961C14.9962 17.4613 14.9197 17.2789 14.9181 17.0882C14.9164 16.8975 14.9897 16.7138 15.1222 16.5766L19.4859 12.2129C19.6223 12.0766 19.8072 12 20.0001 12C20.1929 12 20.3779 12.0766 20.5143 12.2129L24.8779 16.5766C25.0104 16.7138 25.0837 16.8975 25.0821 17.0882C25.0804 17.2789 25.0039 17.4613 24.8691 17.5961C24.7342 17.731 24.5518 17.8075 24.3611 17.8091C24.1704 17.8108 23.9867 17.7375 23.8496 17.605L20.7274 14.4828V23.5C20.7274 23.6929 20.6507 23.8779 20.5143 24.0143C20.3779 24.1507 20.193 24.2273 20.0001 24.2273C19.8072 24.2273 19.6222 24.1507 19.4858 24.0143C19.3494 23.8779 19.2728 23.6929 19.2728 23.5V14.4828ZM26.7586 20.9402C26.895 20.8038 27.08 20.7272 27.2729 20.7272C27.4658 20.7272 27.6507 20.8038 27.7871 20.9402C27.9235 21.0766 28.0002 21.2616 28.0002 21.4545V24.5185C27.9992 25.4416 27.6321 26.3265 26.9794 26.9792C26.3267 27.6319 25.4417 27.999 24.5187 28H15.4815C14.5584 27.999 13.6735 27.6319 13.0208 26.9792C12.3681 26.3265 12.001 25.4416 12 24.5185V21.4545C12 21.2616 12.0766 21.0766 12.213 20.9402C12.3494 20.8038 12.5344 20.7272 12.7273 20.7272C12.9202 20.7272 13.1052 20.8038 13.2415 20.9402C13.3779 21.0766 13.4546 21.2616 13.4546 21.4545V24.5185C13.4551 25.0559 13.6689 25.5711 14.0489 25.9511C14.4289 26.3311 14.9441 26.5449 15.4815 26.5454H24.5187C25.0561 26.5449 25.5713 26.3311 25.9513 25.9511C26.3313 25.5711 26.545 25.0559 26.5456 24.5185V21.4545C26.5456 21.2616 26.6222 21.0766 26.7586 20.9402Z" fill="#1D3557"/>
<path d="M16.1506 17.605L16.2548 17.7129L16.2567 17.7111L16.1506 17.605ZM19.2728 14.4828H19.4228V14.1206L19.1667 14.3767L19.2728 14.4828ZM15.639 17.8091L15.6377 17.9591L15.639 17.8091ZM15.1222 16.5766L15.0161 16.4705L15.0143 16.4724L15.1222 16.5766ZM19.4859 12.2129L19.3798 12.1069L19.3798 12.1069L19.4859 12.2129ZM20.5143 12.2129L20.6203 12.1069L20.6203 12.1069L20.5143 12.2129ZM24.8779 16.5766L24.9859 16.4724L24.984 16.4706L24.8779 16.5766ZM25.0821 17.0882L24.9321 17.0869V17.0869L25.0821 17.0882ZM24.8691 17.5961L24.763 17.4901V17.4901L24.8691 17.5961ZM24.3611 17.8091L24.3598 17.6591L24.3611 17.8091ZM23.8496 17.605L23.7435 17.7111L23.7454 17.7129L23.8496 17.605ZM20.7274 14.4828L20.8334 14.3767L20.5774 14.1206V14.4828H20.7274ZM20.5143 24.0143L20.6204 24.1203H20.6204L20.5143 24.0143ZM19.4858 24.0143L19.5919 23.9082L19.4858 24.0143ZM26.7586 20.9402L26.6525 20.8342H26.6525L26.7586 20.9402ZM28.0002 24.5185L28.1502 24.5187V24.5185H28.0002ZM26.9794 26.9792L26.8733 26.8732L26.9794 26.9792ZM24.5187 28V28.15H24.5188L24.5187 28ZM15.4815 28L15.4813 28.15H15.4815V28ZM13.0208 26.9792L12.9147 27.0853L13.0208 26.9792ZM12 24.5185H11.85L11.85 24.5187L12 24.5185ZM12.213 20.9402L12.1069 20.8342L12.213 20.9402ZM13.4546 24.5185H13.3046L13.3046 24.5187L13.4546 24.5185ZM14.0489 25.9511L13.9428 26.0572H13.9428L14.0489 25.9511ZM15.4815 26.5454L15.4813 26.6954H15.4815V26.5454ZM24.5187 26.5454V26.6954H24.5188L24.5187 26.5454ZM25.9513 25.9511L26.0573 26.0572L25.9513 25.9511ZM26.5456 24.5185L26.6956 24.5187V24.5185H26.5456ZM16.2567 17.7111L19.3789 14.5888L19.1667 14.3767L16.0445 17.4989L16.2567 17.7111ZM15.6377 17.9591C15.8677 17.9611 16.0893 17.8727 16.2548 17.7129L16.0464 17.4971C15.9375 17.6023 15.7917 17.6604 15.6403 17.6591L15.6377 17.9591ZM15.025 17.7022C15.1877 17.8649 15.4077 17.9571 15.6377 17.9591L15.6403 17.6591C15.489 17.6578 15.3442 17.5971 15.2371 17.4901L15.025 17.7022ZM14.7681 17.0895C14.7701 17.3195 14.8624 17.5395 15.025 17.7022L15.2371 17.4901C15.1301 17.383 15.0694 17.2382 15.0681 17.0869L14.7681 17.0895ZM15.0143 16.4724C14.8545 16.6379 14.7661 16.8595 14.7681 17.0895L15.0681 17.0869C15.0668 16.9355 15.1249 16.7897 15.2301 16.6808L15.0143 16.4724ZM19.3798 12.1069L15.0161 16.4706L15.2283 16.6827L19.592 12.319L19.3798 12.1069ZM20.0001 11.85C19.7675 11.85 19.5444 11.9424 19.3798 12.1069L19.5919 12.319C19.7002 12.2108 19.847 12.15 20.0001 12.15V11.85ZM20.6203 12.1069C20.4558 11.9424 20.2327 11.85 20.0001 11.85V12.15C20.1532 12.15 20.3 12.2108 20.4082 12.319L20.6203 12.1069ZM24.984 16.4706L20.6203 12.1069L20.4082 12.319L24.7719 16.6827L24.984 16.4706ZM25.2321 17.0895C25.2341 16.8595 25.1456 16.6379 24.9858 16.4724L24.77 16.6808C24.8752 16.7897 24.9334 16.9355 24.9321 17.0869L25.2321 17.0895ZM24.9751 17.7022C25.1378 17.5395 25.2301 17.3195 25.2321 17.0895L24.9321 17.0869C24.9308 17.2382 24.87 17.383 24.763 17.4901L24.9751 17.7022ZM24.3624 17.9591C24.5925 17.9571 24.8125 17.8649 24.9751 17.7022L24.763 17.4901C24.656 17.5971 24.5112 17.6578 24.3598 17.6591L24.3624 17.9591ZM23.7454 17.7129C23.9108 17.8727 24.1324 17.9611 24.3624 17.9591L24.3598 17.6591C24.2085 17.6604 24.0627 17.6023 23.9538 17.4971L23.7454 17.7129ZM20.6213 14.5888L23.7435 17.7111L23.9556 17.4989L20.8334 14.3767L20.6213 14.5888ZM20.8774 23.5V14.4828H20.5774V23.5H20.8774ZM20.6204 24.1203C20.7849 23.9558 20.8774 23.7327 20.8774 23.5H20.5774C20.5774 23.6531 20.5165 23.7999 20.4083 23.9082L20.6204 24.1203ZM20.0001 24.3773C20.2327 24.3773 20.4559 24.2849 20.6204 24.1203L20.4083 23.9082C20.3 24.0165 20.1532 24.0773 20.0001 24.0773V24.3773ZM19.3797 24.1203C19.5443 24.2849 19.7674 24.3773 20.0001 24.3773V24.0773C19.847 24.0773 19.7001 24.0165 19.5919 23.9082L19.3797 24.1203ZM19.1228 23.5C19.1228 23.7327 19.2152 23.9558 19.3797 24.1203L19.5919 23.9082C19.4836 23.7999 19.4228 23.6531 19.4228 23.5H19.1228ZM19.1228 14.4828V23.5H19.4228V14.4828H19.1228ZM27.2729 20.5772C27.0402 20.5772 26.8171 20.6696 26.6525 20.8342L26.8647 21.0463C26.9729 20.938 27.1198 20.8772 27.2729 20.8772V20.5772ZM27.8932 20.8342C27.7287 20.6696 27.5055 20.5772 27.2729 20.5772V20.8772C27.426 20.8772 27.5728 20.938 27.6811 21.0463L27.8932 20.8342ZM28.1502 21.4545C28.1502 21.2218 28.0577 20.9987 27.8932 20.8342L27.6811 21.0463C27.7893 21.1545 27.8502 21.3014 27.8502 21.4545H28.1502ZM28.1502 24.5185V21.4545H27.8502V24.5185H28.1502ZM27.0855 27.0853C27.7662 26.4045 28.1491 25.4814 28.1502 24.5187L27.8502 24.5184C27.8492 25.4017 27.4979 26.2486 26.8733 26.8732L27.0855 27.0853ZM24.5188 28.15C25.4816 28.149 26.4047 27.7661 27.0855 27.0853L26.8733 26.8732C26.2487 27.4978 25.4018 27.8491 24.5185 27.85L24.5188 28.15ZM15.4815 28.15H24.5187V27.85H15.4815V28.15ZM12.9147 27.0853C13.5955 27.7661 14.5186 28.149 15.4813 28.15L15.4816 27.85C14.5983 27.8491 13.7514 27.4978 13.1268 26.8732L12.9147 27.0853ZM11.85 24.5187C11.851 25.4814 12.2339 26.4045 12.9147 27.0853L13.1268 26.8732C12.5022 26.2486 12.1509 25.4017 12.15 24.5184L11.85 24.5187ZM11.85 21.4545V24.5185H12.15V21.4545H11.85ZM12.1069 20.8342C11.9424 20.9987 11.85 21.2218 11.85 21.4545H12.15C12.15 21.3014 12.2108 21.1545 12.3191 21.0463L12.1069 20.8342ZM12.7273 20.5772C12.4946 20.5772 12.2715 20.6696 12.1069 20.8342L12.3191 21.0463C12.4273 20.938 12.5742 20.8772 12.7273 20.8772V20.5772ZM13.3476 20.8342C13.1831 20.6696 12.9599 20.5772 12.7273 20.5772V20.8772C12.8804 20.8772 13.0272 20.938 13.1355 21.0463L13.3476 20.8342ZM13.6046 21.4545C13.6046 21.2218 13.5121 20.9987 13.3476 20.8342L13.1355 21.0463C13.2437 21.1545 13.3046 21.3014 13.3046 21.4545H13.6046ZM13.6046 24.5185V21.4545H13.3046V24.5185H13.6046ZM14.1549 25.8451C13.803 25.4932 13.6051 25.016 13.6046 24.5184L13.3046 24.5187C13.3052 25.0958 13.5347 25.6491 13.9428 26.0572L14.1549 25.8451ZM15.4816 26.3954C14.984 26.3949 14.5068 26.197 14.1549 25.8451L13.9428 26.0572C14.3509 26.4653 14.9042 26.6948 15.4813 26.6954L15.4816 26.3954ZM24.5187 26.3954H15.4815V26.6954H24.5187V26.3954ZM25.8452 25.8451C25.4933 26.197 25.0162 26.3949 24.5185 26.3954L24.5188 26.6954C25.096 26.6948 25.6493 26.4653 26.0573 26.0572L25.8452 25.8451ZM26.3956 24.5184C26.3951 25.016 26.1971 25.4932 25.8452 25.8451L26.0573 26.0572C26.4654 25.6491 26.695 25.0958 26.6956 24.5187L26.3956 24.5184ZM26.3956 21.4545V24.5185H26.6956V21.4545H26.3956ZM26.6525 20.8342C26.488 20.9987 26.3956 21.2218 26.3956 21.4545H26.6956C26.6956 21.3014 26.7564 21.1545 26.8647 21.0463L26.6525 20.8342Z" fill="#1D3557"/>
</svg>
