<svg width="20" height="21" viewBox="0 0 20 21" fill="none" xmlns="http://www.w3.org/2000/svg">
<g opacity="0.8">
<path d="M8.74167 2.30728L4.58334 3.87394C3.62501 4.23228 2.84167 5.36561 2.84167 6.38227V12.5739C2.84167 13.5573 3.49167 14.8489 4.28334 15.4406L7.86667 18.1156C9.04167 18.9989 10.975 18.9989 12.15 18.1156L15.7333 15.4406C16.525 14.8489 17.175 13.5573 17.175 12.5739V6.38227C17.175 5.35728 16.3917 4.22394 15.4333 3.86561L11.275 2.30728C10.5667 2.04894 9.43334 2.04894 8.74167 2.30728Z" stroke="#1D3557" stroke-width="1.5" stroke-linecap="round" stroke-linejoin="round"/>
<path d="M10 10.8657C10.9205 10.8657 11.6667 10.1195 11.6667 9.19902C11.6667 8.27854 10.9205 7.53235 10 7.53235C9.07957 7.53235 8.33337 8.27854 8.33337 9.19902C8.33337 10.1195 9.07957 10.8657 10 10.8657Z" stroke="#1D3557" stroke-width="1.25" stroke-miterlimit="10" stroke-linecap="round" stroke-linejoin="round"/>
<path d="M10 10.8656V13.3656" stroke="#1D3557" stroke-width="1.25" stroke-miterlimit="10" stroke-linecap="round" stroke-linejoin="round"/>
</g>
</svg>
