<svg width="18" height="19" viewBox="0 0 18 19" fill="none" xmlns="http://www.w3.org/2000/svg">
<path d="M13.1551 6.73248C14.174 6.73248 15.0001 5.90645 15.0001 4.88748C15.0001 3.86852 14.174 3.04248 13.1551 3.04248C12.1361 3.04248 11.3101 3.86852 11.3101 4.88748C11.3101 5.90645 12.1361 6.73248 13.1551 6.73248Z" stroke="#893393" stroke-width="1.25" stroke-miterlimit="10" stroke-linecap="round" stroke-linejoin="round"/>
<path d="M4.84501 6.73248C5.86397 6.73248 6.69 5.90645 6.69 4.88748C6.69 3.86852 5.86397 3.04248 4.84501 3.04248C3.82604 3.04248 3 3.86852 3 4.88748C3 5.90645 3.82604 6.73248 4.84501 6.73248Z" stroke="#893393" stroke-width="1.25" stroke-miterlimit="10" stroke-linecap="round" stroke-linejoin="round"/>
<path d="M13.1551 15.9575C14.174 15.9575 15.0001 15.1314 15.0001 14.1125C15.0001 13.0935 14.174 12.2675 13.1551 12.2675C12.1361 12.2675 11.3101 13.0935 11.3101 14.1125C11.3101 15.1314 12.1361 15.9575 13.1551 15.9575Z" stroke="#893393" stroke-width="1.25" stroke-miterlimit="10" stroke-linecap="round" stroke-linejoin="round"/>
<path d="M4.84501 15.9575C5.86397 15.9575 6.69 15.1314 6.69 14.1125C6.69 13.0935 5.86397 12.2675 4.84501 12.2675C3.82604 12.2675 3 13.0935 3 14.1125C3 15.1314 3.82604 15.9575 4.84501 15.9575Z" stroke="#893393" stroke-width="1.25" stroke-miterlimit="10" stroke-linecap="round" stroke-linejoin="round"/>
</svg>
