<svg width="18" height="18" viewBox="0 0 18 18" fill="none" xmlns="http://www.w3.org/2000/svg">
<path d="M5.87498 9.00002C5.87511 8.38769 6.05624 7.78906 6.39561 7.27938L3.27809 4.16187C2.13023 5.51259 1.5 7.22743 1.5 9.00002C1.5 10.7726 2.13023 12.4874 3.27809 13.8382L6.39561 10.7206C6.05624 10.211 5.87511 9.61234 5.87498 9.00002V9.00002Z" fill="#893393"/>
<path d="M14.722 4.16187L11.6045 7.27938C11.944 7.78902 12.1251 8.38767 12.1251 9.00002C12.1251 9.61236 11.944 10.211 11.6045 10.7206L14.722 13.8382C15.8699 12.4874 16.5001 10.7726 16.5001 9.00002C16.5001 7.22743 15.8699 5.51259 14.722 4.16187V4.16187Z" fill="#893393"/>
<path d="M9.00002 12.125C8.38769 12.1249 7.78906 11.9437 7.27938 11.6044L4.16187 14.7219C5.51259 15.8698 7.22743 16.5 9.00002 16.5C10.7726 16.5 12.4874 15.8698 13.8382 14.7219L10.7206 11.6044C10.211 11.9437 9.61234 12.1249 9.00002 12.125Z" fill="#893393"/>
<path d="M9.00002 5.87498C9.61234 5.87511 10.211 6.05624 10.7206 6.39561L13.8382 3.27809C12.4874 2.13023 10.7726 1.5 9.00002 1.5C7.22743 1.5 5.51259 2.13023 4.16187 3.27809L7.27938 6.39561C7.78906 6.05624 8.38769 5.87511 9.00002 5.87498V5.87498Z" fill="#893393"/>
</svg>
