<svg width="18" height="19" viewBox="0 0 18 19" fill="none" xmlns="http://www.w3.org/2000/svg">
<g opacity="0.8">
<path d="M0.62 9.19385C0.62 7.43972 1.17252 5.73621 2.19012 4.32128L5.09913 7.23029C4.79192 7.83674 4.63012 8.50911 4.62998 9.19372L5.24998 9.19385L4.62998 9.19397C4.63012 9.87858 4.79192 10.551 5.09913 11.1574L2.19012 14.0664C1.17252 12.6515 0.62 10.948 0.62 9.19385Z" stroke="#1D3557" stroke-width="1.24"/>
<path d="M15.8099 4.32128C16.8275 5.73621 17.38 7.43971 17.38 9.19385C17.38 10.948 16.8275 12.6515 15.8099 14.0664L12.9009 11.1574C13.2082 10.551 13.37 9.87852 13.37 9.19385C13.37 8.50918 13.2082 7.83672 12.9009 7.23025L15.8099 4.32128Z" stroke="#1D3557" stroke-width="1.24"/>
<path d="M13.8727 16.0037C12.4578 17.0213 10.7543 17.5738 9.00012 17.5738C7.24599 17.5738 5.54248 17.0213 4.12755 16.0037L7.03656 13.0947C7.64302 13.4019 8.31539 13.5637 9 13.5638H9.00024C9.68485 13.5637 10.3572 13.4019 10.9637 13.0947L13.8727 16.0037Z" stroke="#1D3557" stroke-width="1.24"/>
<path d="M9.00012 0.813848C10.7543 0.813848 12.4578 1.36637 13.8727 2.38397L10.9637 5.29298C10.3572 4.98576 9.68485 4.82397 9.00024 4.82383L9.00012 5.44383L9 4.82383C8.31539 4.82397 7.64302 4.98576 7.03656 5.29298L4.12755 2.38397C5.54248 1.36637 7.24599 0.813848 9.00012 0.813848Z" stroke="#1D3557" stroke-width="1.24"/>
</g>
</svg>
