<svg width="20" height="21" viewBox="0 0 20 21" fill="none" xmlns="http://www.w3.org/2000/svg">
<path d="M17.5 5.48332C14.725 5.20832 11.9333 5.06665 9.15 5.06665C7.5 5.06665 5.85 5.14998 4.2 5.31665L2.5 5.48332" stroke="#536D91" stroke-width="1.25" stroke-linecap="round" stroke-linejoin="round"/>
<path d="M7.0835 4.64169L7.26683 3.55002C7.40016 2.75835 7.50016 2.16669 8.9085 2.16669H11.0918C12.5002 2.16669 12.6085 2.79169 12.7335 3.55835L12.9168 4.64169" stroke="#536D91" stroke-width="1.25" stroke-linecap="round" stroke-linejoin="round"/>
<path d="M15.7082 8.11664L15.1665 16.5083C15.0748 17.8166 14.9998 18.8333 12.6748 18.8333H7.32484C4.99984 18.8333 4.92484 17.8166 4.83317 16.5083L4.2915 8.11664" stroke="#536D91" stroke-width="1.25" stroke-linecap="round" stroke-linejoin="round"/>
<path d="M8.6084 14.25H11.3834" stroke="#536D91" stroke-width="1.25" stroke-linecap="round" stroke-linejoin="round"/>
<path d="M7.9165 10.9167H12.0832" stroke="#536D91" stroke-width="1.25" stroke-linecap="round" stroke-linejoin="round"/>
</svg>
