<svg width="18" height="18" viewBox="0 0 18 18" fill="none" xmlns="http://www.w3.org/2000/svg">
<g opacity="0.8">
<path d="M6.18738 8.35229C7.91038 8.35229 9.27442 6.98825 9.27442 5.26525C9.27442 3.54225 7.83859 2.25 6.18738 2.25C4.53617 2.25 3.10034 3.61404 3.10034 5.33704C3.10034 6.98825 4.46438 8.35229 6.18738 8.35229Z" fill="#1D3557"/>
<path d="M10.1358 11.0086C7.98207 8.78306 4.46428 8.71127 2.23874 10.865C1.59261 11.5829 1.23366 12.0137 0.874697 13.0188C0.587531 13.8085 0.659322 15.3879 2.5977 15.3879C4.60786 15.3879 7.47953 15.3879 9.70507 15.3879C11.7152 15.3879 11.5717 13.7367 11.4281 13.1623C11.2127 12.3726 10.7819 11.5829 10.1358 11.0086Z" fill="#1D3557"/>
<path d="M13.1511 8.42413C14.4199 8.42413 15.4484 7.39558 15.4484 6.1268C15.4484 4.85802 14.4199 3.82947 13.1511 3.82947C11.8823 3.82947 10.8538 4.85802 10.8538 6.1268C10.8538 7.39558 11.8823 8.42413 13.1511 8.42413Z" fill="#1D3557"/>
<path d="M13.2228 9.35742C12.5049 9.35742 11.787 9.5728 11.2126 9.93175C11.3562 10.0035 11.428 10.1471 11.5716 10.2189C12.2895 10.9368 12.8639 11.8701 13.151 12.8752C13.2228 13.0906 13.2946 13.306 13.2946 13.4495C13.3664 13.6649 13.51 13.8803 13.7971 13.8803H16.0227C16.8124 13.8803 17.3149 13.3778 17.2431 12.8034C16.956 10.865 15.3048 9.35742 13.2228 9.35742Z" fill="#1D3557"/>
</g>
</svg>
