<svg width="60" height="60" viewBox="0 0 60 60" fill="none" xmlns="http://www.w3.org/2000/svg">
<rect opacity="0.1" width="60" height="60" rx="14.2857" fill="#FE8D91"/>
<path fill-rule="evenodd" clip-rule="evenodd" d="M20.3571 15H39.6429C42.6015 15 45 17.3985 45 20.3571V25.8643L15 21.2571V20.3571C15 17.3985 17.3985 15 20.3571 15ZM23.3036 45L27.6643 25.3607L15 23.4107V39.6429C15 42.6015 17.3985 45 20.3571 45H23.3036ZM36.9964 39.5036L39.1393 36.7179C39.9099 35.8372 40.1584 34.6152 39.7929 33.5036C39.4202 32.4722 38.502 31.736 37.4143 31.5964H37.0286H36.6429C35.5552 31.736 34.637 32.4722 34.2643 33.5036C33.8814 34.604 34.1052 35.8248 34.8536 36.7179L36.9964 39.5036ZM38.0679 34.8214C38.0649 34.3105 37.7015 33.8727 37.1998 33.7757C36.6982 33.6787 36.1978 33.9494 36.0046 34.4225C35.8114 34.8955 35.9791 35.4392 36.4052 35.7212C36.8313 36.0031 37.3973 35.9449 37.7571 35.5821C37.9412 35.372 38.0405 35.1008 38.0357 34.8214H38.0679ZM45 39.6429V28.0393L29.7857 25.7143L25.5 45H39.6429C42.6015 45 45 42.6015 45 39.6429ZM41.7214 32.7536C41.044 31.0082 39.4646 29.7743 37.6071 29.5393C37.1832 29.4965 36.7561 29.4965 36.3321 29.5393C34.4707 29.7706 32.8864 31.0051 32.2071 32.7536C31.5589 34.5486 31.8962 36.5519 33.0964 38.0357L36.9643 42.9964L40.8321 38.0357C42.0324 36.5519 42.3697 34.5486 41.7214 32.7536Z" fill="#FE8D91"/>
</svg>
