<svg width="60" height="60" viewBox="0 0 60 60" fill="none" xmlns="http://www.w3.org/2000/svg">
<rect opacity="0.1" width="60" height="60" rx="14.2857" fill="#EF5645"/>
<path d="M35.2666 32.1488L38.7155 28.7888C38.9472 28.5662 39.0307 28.2303 38.9302 27.925C38.8298 27.6198 38.5631 27.3992 38.2444 27.3577L33.4888 26.6644L31.3555 22.3444C31.1934 22.0829 30.9076 21.9238 30.5999 21.9238C30.2922 21.9238 30.0064 22.0829 29.8444 22.3444L27.711 26.6644L22.9555 27.3577C22.6368 27.3992 22.3701 27.6198 22.2696 27.925C22.1691 28.2303 22.2526 28.5662 22.4844 28.7888L25.9332 32.1488L25.1155 36.8955C25.0714 37.2117 25.2004 37.5273 25.4532 37.7222C25.717 37.9007 26.0561 37.9244 26.3421 37.7844L30.5999 35.5444L34.8577 37.7844C34.9789 37.8465 35.1127 37.88 35.2488 37.8822C35.427 37.88 35.6004 37.8242 35.7466 37.7222C35.9995 37.5273 36.1284 37.2117 36.0844 36.8955L35.2666 32.1488Z" fill="#EF5645"/>
<path d="M30.5999 19.3488C31.0708 19.3497 31.4606 18.9833 31.4888 18.5133V15.1888C31.3689 14.8241 31.0283 14.5775 30.6444 14.5775C30.2604 14.5775 29.9198 14.8241 29.7999 15.1888V18.5133C29.8241 18.951 30.1637 19.3057 30.5999 19.3488Z" fill="#EF5645"/>
<path d="M21.7111 22.5578C21.8683 22.7172 22.0828 22.8068 22.3067 22.8067C22.5309 22.8089 22.7462 22.7189 22.9022 22.5578C23.1691 22.2159 23.1504 21.7313 22.8578 21.4111L20.4755 18.9844C20.2686 18.7453 19.9454 18.6417 19.638 18.7162C19.3307 18.7907 19.0907 19.0307 19.0162 19.3381C18.9417 19.6454 19.0452 19.9686 19.2844 20.1756L21.7111 22.5578Z" fill="#EF5645"/>
<path d="M19.6489 30.3C19.6269 29.8464 19.2666 29.4823 18.8133 29.4556H15.4889C15.0102 29.4556 14.6222 29.8436 14.6222 30.3222C14.6222 30.8009 15.0102 31.1889 15.4889 31.1889H18.8133C19.2833 31.1607 19.6497 30.7708 19.6489 30.3Z" fill="#EF5645"/>
<path d="M21.7111 38.0422L19.2844 40.4244C18.9791 40.7628 18.9791 41.2772 19.2844 41.6156C19.4448 41.7702 19.6573 41.859 19.88 41.8644C20.1027 41.859 20.3152 41.7702 20.4755 41.6156L22.8578 39.2333C23.0832 38.903 23.046 38.4598 22.7687 38.1716C22.4913 37.8835 22.0498 37.8295 21.7111 38.0422Z" fill="#EF5645"/>
<path d="M30.6 41.2511C30.1464 41.273 29.7823 41.6333 29.7556 42.0867V45.4555C29.6351 45.8221 29.7648 46.2245 30.0767 46.4516C30.3886 46.6788 30.8114 46.6788 31.1233 46.4516C31.4352 46.2245 31.5649 45.8221 31.4445 45.4555V42.0867C31.4177 41.6333 31.0536 41.273 30.6 41.2511V41.2511Z" fill="#EF5645"/>
<path d="M39.5333 38.0422C39.1984 37.7525 38.6967 37.7707 38.3837 38.0837C38.0706 38.3968 38.0525 38.8985 38.3422 39.2333L40.7244 41.6155C40.8847 41.7702 41.0972 41.859 41.3199 41.8644C41.5426 41.859 41.7552 41.7702 41.9155 41.6155C42.2208 41.2772 42.2208 40.7627 41.9155 40.4244L39.5333 38.0422Z" fill="#EF5645"/>
<path d="M45.7555 29.4556H42.3866C42.0218 29.5755 41.7753 29.916 41.7753 30.3C41.7753 30.684 42.0218 31.0246 42.3866 31.1445H45.7555C46.1203 31.0246 46.3668 30.684 46.3668 30.3C46.3668 29.916 46.1203 29.5755 45.7555 29.4556Z" fill="#EF5645"/>
<path d="M38.9377 22.8067C39.1616 22.8068 39.3761 22.7172 39.5333 22.5578L41.9155 20.1756C42.1547 19.9686 42.2582 19.6454 42.1837 19.3381C42.1093 19.0307 41.8693 18.7907 41.5619 18.7162C41.2545 18.6417 40.9313 18.7453 40.7244 18.9844L38.3422 21.4111C38.0368 21.7494 38.0368 22.2639 38.3422 22.6022C38.5054 22.7471 38.7199 22.8207 38.9377 22.8067Z" fill="#EF5645"/>
</svg>
