<svg width="60" height="60" viewBox="0 0 60 60" fill="none" xmlns="http://www.w3.org/2000/svg">
<rect opacity="0.1" width="60" height="60" rx="14.2857" fill="#6E38DD"/>
<path d="M41.7157 40.2526V37.6C41.7157 36.6053 41.2368 35.6474 40.4263 35.0579C37.6631 33.0684 34.421 31.9632 31.0684 31.7421V27.321C31.0684 26.7316 30.5894 26.2526 29.9999 26.2526C29.4105 26.2526 28.9315 26.7316 28.9315 27.321V31.7789C25.542 31.9632 22.3368 33.1053 19.5736 35.0947C18.7631 35.6842 18.2842 36.6053 18.2842 37.6368V40.2895C17.1052 40.7316 16.2947 41.8368 16.2947 43.1632C16.2947 44.8579 17.6578 46.221 19.3526 46.221C21.0473 46.221 22.4105 44.8579 22.4105 43.1632C22.4105 41.8368 21.5631 40.7316 20.421 40.2895V37.6368C20.421 37.3053 20.5684 37.0105 20.8263 36.8263C23.221 35.0947 26.021 34.1 28.9684 33.9158V40.2895C27.7894 40.7316 26.9789 41.8368 26.9789 43.1632C26.9789 44.8579 28.342 46.221 30.0368 46.221C31.7315 46.221 33.0947 44.8579 33.0947 43.1632C33.0947 41.8368 32.2473 40.7316 31.1052 40.2895V33.9158C34.0526 34.1 36.8157 35.0947 39.2473 36.8263C39.5052 37.0105 39.6526 37.3053 39.6526 37.6368V40.2895C38.4736 40.7316 37.6631 41.8368 37.6631 43.1632C37.6631 44.8579 39.0263 46.221 40.721 46.221C42.4157 46.221 43.7789 44.8579 43.7789 43.1632C43.7052 41.8 42.8947 40.6947 41.7157 40.2526Z" fill="#6E38DD"/>
<path d="M25.2843 20.1737C25.579 20.4316 25.7264 20.8737 25.6527 21.2421L24.8422 24.6316C24.6211 25.5895 25.6527 26.3263 26.4632 25.8105L29.4106 24.0053C29.7422 23.7842 30.1843 23.7842 30.5527 24.0053L33.5 25.8105C34.3106 26.3263 35.3422 25.5526 35.1211 24.6316L34.3106 21.2421C34.2 20.8368 34.3474 20.4316 34.679 20.1737L37.2948 17.9263C38.0316 17.3 37.6264 16.0842 36.6685 16.0105L33.2053 15.7158C32.8 15.6789 32.4316 15.421 32.2843 15.0526L30.9579 11.8474C30.5895 10.9632 29.3 10.9632 28.9316 11.8474L27.6422 15.0526C27.4948 15.421 27.1264 15.6789 26.7211 15.7158L23.2579 16.0105C22.3 16.0842 21.8948 17.3 22.6316 17.9263L25.2843 20.1737Z" fill="#6E38DD"/>
</svg>
