<svg width="60" height="60" viewBox="0 0 60 60" fill="none" xmlns="http://www.w3.org/2000/svg">
<rect width="60" height="60" rx="14.2857" fill="white"/>
<rect opacity="0.1" width="60" height="60" rx="14.2857" fill="#FFBF00"/>
<path fill-rule="evenodd" clip-rule="evenodd" d="M14.2858 30.4762C14.2858 21.5344 21.5345 14.2857 30.4766 14.2857C39.418 14.2857 46.6667 21.5344 46.6667 30.4762C46.6667 39.4176 39.418 46.6667 30.4766 46.6667C21.5345 46.6667 14.2858 39.4176 14.2858 30.4762ZM40.3045 31.6129C40.7081 31.6129 41.1096 31.4454 41.3962 31.1186C41.9242 30.5162 41.8638 29.5999 41.2618 29.0716L31.4329 20.4522C30.8854 19.9725 30.0674 19.9725 29.52 20.4522L19.691 29.0712C19.0884 29.5999 19.0283 30.5159 19.5566 31.1186C20.085 31.7212 21.0016 31.7813 21.6036 31.253L22.6665 30.3214V38.5715C22.6665 39.0752 23.075 39.4841 23.5787 39.4841H37.3738C37.8778 39.4841 38.2863 39.0752 38.2863 38.5715V30.3214L39.3489 31.253C39.6243 31.4944 39.9647 31.6129 40.3045 31.6129Z" fill="#FFBF00"/>
<path fill-rule="evenodd" clip-rule="evenodd" d="M32.9048 26.8657C32.9048 27.2097 32.7734 27.5029 32.5103 27.7445C32.2474 27.986 31.9315 28.1072 31.5612 28.1072C31.1923 28.1072 30.8734 27.986 30.6089 27.7445C30.3459 27.5029 30.213 27.2097 30.213 26.8657C30.213 26.5224 30.3459 26.2293 30.6089 25.9855C30.8734 25.7417 31.1923 25.619 31.5612 25.619C31.9315 25.619 32.2474 25.7417 32.5103 25.9855C32.7734 26.2293 32.9048 26.5224 32.9048 26.8657ZM32.3834 35.0008C32.6298 35.1893 32.3788 35.6013 31.9042 35.8205C31.4931 36.012 30.9853 36.1428 30.6301 36.1428C30.083 36.1428 29.6159 35.8968 29.3121 35.6312C29.0083 35.3665 28.8572 35.0315 28.8572 34.6254C28.8572 34.4668 28.8678 34.3053 28.8904 34.1399C28.9146 33.9747 28.9509 33.7885 28.9992 33.5806L29.5661 31.6018C29.6175 31.4126 29.6582 31.2324 29.693 31.0633C29.7262 30.8943 29.7459 30.738 29.7459 30.5989C29.7459 30.3454 29.6915 30.1696 29.5857 30.0709C29.4799 29.9714 29.2803 29.9214 28.9826 29.9214C28.836 29.9214 28.6894 29.3529 29.3499 29.1241C29.687 29.0089 30.0089 28.9648 30.3111 28.9648C30.8553 28.9648 31.2755 29.0958 31.5687 29.3552C31.8634 29.6155 32.0116 29.9535 32.0116 30.3685C32.0116 30.4538 32.001 30.6049 31.9813 30.8233C31.9602 31.0394 31.9209 31.2383 31.868 31.4193L31.3042 33.3907C31.2589 33.5492 31.2165 33.731 31.1803 33.9343C31.144 34.1371 31.1274 34.2904 31.1274 34.395C31.1274 34.6568 31.1848 34.8341 31.3042 34.9298C31.4221 35.0247 31.6277 35.0719 31.9194 35.0719C31.9697 35.0719 32.0268 35.0473 32.086 35.0218C32.1869 34.9785 32.2939 34.9325 32.3834 35.0008Z" fill="#FFBF00"/>
</svg>
