<?xml version="1.0" encoding="UTF-8" standalone="no"?><!DOCTYPE svg PUBLIC "-//W3C//DTD SVG 1.1//EN" "http://www.w3.org/Graphics/SVG/1.1/DTD/svg11.dtd"><svg width="100%" height="100%" viewBox="0 0 60 60" version="1.1" xmlns="http://www.w3.org/2000/svg" xmlns:xlink="http://www.w3.org/1999/xlink" xml:space="preserve" xmlns:serif="http://www.serif.com/" style="fill-rule:evenodd;clip-rule:evenodd;stroke-linejoin:round;stroke-miterlimit:2;"><path d="M60,14.286c0,-7.885 -6.401,-14.286 -14.286,-14.286l-31.428,0c-7.885,0 -14.286,6.401 -14.286,14.286l0,31.428c0,7.885 6.401,14.286 14.286,14.286l31.428,0c7.885,0 14.286,-6.401 14.286,-14.286l0,-31.428Z" style="fill:#368d33;fill-opacity:0.1;"/><path d="M32.439,19.357c3.691,1.611 5.645,5.567 4.973,9.367c2.063,1.781 3.251,4.375 3.253,7.1l-0,0.266c0.502,-0.177 1.031,-0.267 1.564,-0.266c2.573,0 4.691,2.118 4.691,4.692c0,2.573 -2.118,4.691 -4.691,4.691l-20.33,0c-3.432,0 -6.256,-2.824 -6.256,-6.255c0,-3.432 2.824,-6.256 6.256,-6.256l0.422,0c-1.986,-2.424 -2.612,-5.88 -1.204,-8.976c1.911,-4.3 7.019,-6.269 11.322,-4.363m-1.267,2.862c-2.768,-1.251 -6.005,0.015 -7.225,2.768c-0.719,1.595 -0.594,3.362 0.157,4.785c1.782,-2.115 4.412,-3.336 7.178,-3.331c1.094,-0 2.158,0.188 3.127,0.532c-0.094,-2.066 -1.349,-3.91 -3.237,-4.754m2.534,-5.724c-0.86,-0.375 -1.721,-0.641 -2.612,-0.813l3.894,-2.033l1.408,4.519c-0.819,-0.674 -1.724,-1.237 -2.69,-1.673m-11.667,1.251c-0.766,0.547 -1.438,1.173 -2.017,1.861l0.172,-4.394l4.629,1.063c-0.97,0.328 -1.908,0.829 -2.784,1.47m18.626,8.241c-0.141,-0.922 -0.344,-1.814 -0.641,-2.674l3.722,2.346l-3.206,3.487c0.172,-1.016 0.203,-2.079 0.125,-3.159m-23.395,2.487c0.109,0.938 0.312,1.83 0.61,2.659l-3.707,-2.346l3.19,-3.472c-0.156,1.017 -0.203,2.08 -0.093,3.159m24.959,10.478l-4.692,-0l0,-3.128c0,-3.432 -2.824,-6.255 -6.255,-6.255c-3.432,-0 -6.256,2.823 -6.256,6.255l-3.127,0c-1.716,0 -3.128,1.412 -3.128,3.128c-0,1.716 1.412,3.127 3.128,3.127l20.33,0c0.858,0 1.564,-0.705 1.564,-1.563c-0,-0.858 -0.706,-1.564 -1.564,-1.564Z" style="fill:#00ba25;fill-rule:nonzero;"/></svg>